<?xml version="1.0" encoding="utf-8"?>
<!-- Generator: Adobe Illustrator 25.0.1, SVG Export Plug-In . SVG Version: 6.00 Build 0)  -->
<svg version="1.1" id="Layer_1" xmlns="http://www.w3.org/2000/svg" xmlns:xlink="http://www.w3.org/1999/xlink" x="0px" y="0px"
	 viewBox="0 0 1074 344" style="enable-background:new 0 0 1074 344; background-color: white;" xml:space="preserve">
<style type="text/css">
	.st0{fill:#FFFFFF;stroke:#000000;stroke-miterlimit:10;}
	.st1{fill:none;stroke:#000000;stroke-width:4;stroke-miterlimit:10;}
	.st2{fill:none;stroke:#000000;stroke-width:4;stroke-linecap:square;stroke-miterlimit:10;}
	.st3{fill:#ED1C24;}
</style>
<rect x="235.69" y="38.69" class="st0" width="56.69" height="56.69"/>
<g>
	<path d="M261.4,78.29V60.43l-3.85,1.16l-0.97-2.46l6.08-3.27h2.69v22.43H261.4z"/>
</g>
<rect x="306.56" y="38.69" class="st0" width="56.69" height="56.69"/>
<g>
	<path d="M326.8,75.33c2.89-2.78,4.97-4.83,6.23-6.15s2.22-2.56,2.88-3.7s0.99-2.31,0.99-3.51c0-0.95-0.3-1.7-0.9-2.26
		s-1.4-0.83-2.41-0.83c-0.61,0-1.19,0.07-1.74,0.21s-1.01,0.31-1.39,0.51s-0.61,0.39-0.7,0.56c-0.47,0.84-0.7,1.31-0.7,1.39
		c0,0.01,0.01,0.02,0.02,0.02c0.02-0.01,0.06-0.04,0.11-0.07s0.09-0.06,0.13-0.07s0.07,0.01,0.08,0.07l-0.19,0.35l-0.28-0.16
		l-2.67-2.02c0.87-1.39,1.93-2.46,3.19-3.21s2.67-1.12,4.23-1.12c1.34,0,2.54,0.28,3.6,0.83s1.9,1.33,2.5,2.33s0.91,2.14,0.91,3.43
		c0,1.28-0.3,2.5-0.91,3.67s-1.39,2.31-2.37,3.41s-2.42,2.6-4.32,4.5l-1.44,1.42h7.33c0.39,0,0.67-0.02,0.85-0.06
		s0.34-0.13,0.48-0.25h0.4v3.66H326.8V75.33z"/>
</g>
<rect x="377.43" y="38.69" class="st0" width="56.69" height="56.69"/>
<g>
	<path d="M410.45,68.31c0.71,0.96,1.07,2.18,1.07,3.68c0,1.3-0.3,2.48-0.91,3.54s-1.47,1.9-2.61,2.51s-2.48,0.92-4.04,0.92
		c-3.07,0-5.41-1.01-7.01-3.02l1.67-3.36l0.02-0.02l0.02,0.04c0.53,1.02,1.22,1.75,2.07,2.2s1.94,0.67,3.28,0.67
		c1.1,0,1.96-0.33,2.58-0.99s0.92-1.54,0.92-2.65c0-1.21-0.34-2.11-1.01-2.7s-1.81-0.89-3.42-0.89c-0.56,0-1.19,0.04-1.88,0.11V65.1
		c0.18,0.01,0.43,0.02,0.76,0.02c1.85,0,3.14-0.3,3.86-0.9s1.08-1.43,1.08-2.5c0-0.87-0.25-1.57-0.76-2.11s-1.23-0.81-2.15-0.81
		c-0.81,0-1.56,0.14-2.24,0.42s-1.4,0.77-2.15,1.46l-2.27-2.32c0.86-1.02,1.85-1.78,2.99-2.28s2.35-0.75,3.64-0.75
		c1.37,0,2.59,0.26,3.65,0.78s1.89,1.24,2.48,2.14s0.89,1.92,0.89,3.05c0,1.21-0.31,2.25-0.92,3.12s-1.35,1.5-2.21,1.89
		C408.85,66.7,409.73,67.36,410.45,68.31z M398.56,72.35c0-0.02,0.01-0.04,0.04-0.04s0.07,0.02,0.14,0.05l-0.11,0.21
		C398.59,72.48,398.56,72.41,398.56,72.35z M399.15,72.54c0,0.01-0.01,0.02-0.02,0.02c-0.04,0-0.1-0.03-0.18-0.08
		s-0.16-0.09-0.2-0.11l0.02-0.05l0.37,0.18L399.15,72.54z"/>
</g>
<rect x="448.29" y="38.69" class="st0" width="56.69" height="56.69"/>
<g>
	<path d="M476.27,78.29v-5.54h-8.56v-2.53l9.72-14.36h2.9v13.54h2.99v3.39h-2.99v5.5H476.27z M471.87,69.5h4.54v-6.7L471.87,69.5z"
		/>
</g>
<rect x="519.16" y="38.69" class="st0" width="56.69" height="56.69"/>
<g>
	<path d="M550.63,64.17c1.05,0.62,1.87,1.52,2.44,2.69s0.86,2.57,0.86,4.18c0,1.56-0.3,2.94-0.91,4.13s-1.48,2.13-2.6,2.79
		s-2.44,1-3.94,1c-3.3,0-5.71-1.42-7.22-4.25l2.99-2.29l0.04-0.02l0.02,0.04c0.32,0.61,0.64,1.12,0.97,1.54s0.74,0.76,1.25,1.02
		s1.11,0.4,1.83,0.4c0.69,0,1.31-0.17,1.85-0.5s0.97-0.83,1.28-1.49s0.47-1.46,0.47-2.41c0-1.39-0.32-2.48-0.95-3.26
		s-1.47-1.17-2.51-1.17c-0.71,0-1.35,0.17-1.9,0.52s-1.1,0.89-1.63,1.64l-2.58-1.11l0.83-11.78h12.06v3.43h-8.53l-0.3,4.34
		c0.88-0.26,1.71-0.39,2.5-0.39C548.34,63.24,549.58,63.55,550.63,64.17z M542.2,72.21c0-0.04,0.05,0.01,0.16,0.14l-0.07,0.07
		C542.22,72.31,542.2,72.24,542.2,72.21z M542.71,72.65c-0.04,0-0.1-0.04-0.18-0.13s-0.14-0.14-0.17-0.17l0.16-0.11l0.25,0.33
		C542.76,72.62,542.74,72.65,542.71,72.65z"/>
</g>
<rect x="590.02" y="38.69" class="st0" width="56.69" height="56.69"/>
<g>
	<path d="M621.2,64.33c1.03,0.66,1.85,1.57,2.45,2.73s0.91,2.48,0.91,3.95c0,1.48-0.31,2.82-0.94,4.03s-1.48,2.17-2.55,2.87
		s-2.25,1.05-3.54,1.05c-1.54,0-2.87-0.47-4-1.41s-1.99-2.24-2.59-3.9s-0.9-3.57-0.9-5.71c0-2.57,0.35-4.8,1.04-6.69
		s1.68-3.35,2.95-4.36s2.72-1.52,4.38-1.52c1.01,0,1.99,0.23,2.95,0.68s1.86,1.1,2.69,1.96l-2.53,2.69l-0.02,0.02l-0.23-0.3
		c-0.32-0.39-0.58-0.68-0.8-0.89s-0.49-0.37-0.82-0.5s-0.74-0.19-1.25-0.19c-0.63,0-1.25,0.21-1.85,0.62s-1.12,1.08-1.57,2
		s-0.75,2.11-0.9,3.58c0.48-0.48,1.06-0.88,1.74-1.2s1.34-0.48,1.97-0.48C619.03,63.35,620.17,63.67,621.2,64.33z M619.11,74.76
		c0.45-0.33,0.8-0.82,1.05-1.46s0.39-1.4,0.39-2.29s-0.15-1.65-0.44-2.27s-0.67-1.08-1.12-1.38s-0.93-0.45-1.42-0.45
		c-0.64,0-1.28,0.2-1.89,0.59s-1.12,0.92-1.52,1.57c0,1.27,0.15,2.36,0.45,3.3s0.71,1.65,1.23,2.14s1.12,0.75,1.79,0.75
		C618.17,75.26,618.66,75.1,619.11,74.76z M621.01,60.64c0-0.04,0.02-0.05,0.05-0.05c0.06,0,0.18,0.07,0.37,0.21l-0.12,0.14
		l-0.3-0.28V60.64z M621.66,60.96l-0.23-0.16l0.07-0.07C621.61,60.84,621.66,60.92,621.66,60.96z"/>
</g>
<rect x="660.89" y="38.69" class="st0" width="56.69" height="56.69"/>
<g>
	<path d="M686.7,68.16c1.11-3.06,2.24-5.98,3.4-8.77h-8.65v-3.53h13.5v2.06c-2.59,5.89-5.06,12.69-7.42,20.37h-4.36
		C684.41,74.6,685.59,71.22,686.7,68.16z"/>
</g>
<rect x="731.76" y="38.69" class="st0" width="56.69" height="56.69"/>
<g>
	<path d="M755.14,78.1c-1.14-0.58-2.04-1.37-2.7-2.36s-0.98-2.09-0.98-3.29c0-1.17,0.38-2.31,1.13-3.4s1.76-1.99,3.02-2.68
		c-0.93-0.61-1.68-1.37-2.25-2.27s-0.86-1.83-0.86-2.78c0-1.09,0.3-2.1,0.9-3.02s1.41-1.66,2.43-2.21s2.13-0.82,3.34-0.82
		c1.22,0,2.33,0.26,3.33,0.79s1.79,1.24,2.37,2.14s0.86,1.87,0.86,2.91c0,0.95-0.31,1.89-0.92,2.81s-1.4,1.71-2.35,2.34
		c1.2,0.67,2.16,1.55,2.91,2.64s1.12,2.24,1.12,3.45c0,1.23-0.33,2.35-1,3.36s-1.58,1.8-2.72,2.39s-2.41,0.88-3.8,0.88
		C757.55,78.97,756.28,78.68,755.14,78.1z M760.66,74.93c0.49-0.27,0.87-0.63,1.14-1.09s0.41-0.97,0.41-1.53
		c0-0.86-0.33-1.66-1-2.41s-1.56-1.32-2.67-1.72c-0.83,0.43-1.51,1.01-2.04,1.72s-0.79,1.48-0.79,2.3c0,0.55,0.15,1.07,0.45,1.55
		s0.7,0.86,1.21,1.15s1.06,0.43,1.64,0.43C759.62,75.33,760.17,75.2,760.66,74.93z M761.06,63.07c0.39-0.6,0.59-1.21,0.59-1.85
		c0-0.42-0.12-0.82-0.35-1.19s-0.55-0.67-0.95-0.89s-0.83-0.33-1.3-0.33s-0.89,0.11-1.28,0.32s-0.68,0.5-0.89,0.85
		s-0.32,0.75-0.32,1.17c0,1.28,0.98,2.43,2.95,3.46C760.16,64.18,760.67,63.66,761.06,63.07z"/>
</g>
<rect x="802.62" y="38.69" class="st0" width="56.69" height="56.69"/>
<g>
	<path d="M835.05,58.12c1.18,1.82,1.77,4.58,1.77,8.29c0,8.38-2.57,12.57-7.7,12.57c-1.18,0-2.36-0.22-3.52-0.67s-2.21-1.11-3.15-2
		l2.43-2.71l0.02-0.02l0.04,0.04c0.62,0.62,1.25,1.07,1.88,1.34s1.33,0.41,2.09,0.41c0.94,0,1.68-0.2,2.21-0.61s0.94-1.04,1.2-1.91
		s0.43-2.06,0.53-3.57c-1.07,1.15-2.33,1.72-3.8,1.72c-1.12,0-2.21-0.33-3.24-1s-1.88-1.59-2.52-2.78s-0.97-2.51-0.97-3.99
		c0-1.45,0.32-2.78,0.97-3.98s1.54-2.15,2.69-2.84s2.45-1.04,3.9-1.04C832.15,55.38,833.88,56.29,835.05,58.12z M824.79,73.46
		c-0.03-0.03-0.04-0.05-0.04-0.06l0.19,0.12l-0.04,0.05C824.86,73.53,824.82,73.49,824.79,73.46z M825.4,73.65
		c0,0.05-0.02,0.07-0.07,0.07s-0.18-0.06-0.39-0.19l0.16-0.16l0.3,0.26V73.65z M831.61,66.82c0.49-0.43,0.93-1.07,1.33-1.92
		c-0.04-1.57-0.17-2.78-0.4-3.64s-0.55-1.45-0.97-1.78s-0.96-0.49-1.62-0.49c-1.14,0-2.03,0.39-2.67,1.18s-0.97,1.89-0.97,3.32
		c0,1.32,0.28,2.32,0.85,2.98s1.38,0.99,2.44,0.99C830.45,67.46,831.12,67.25,831.61,66.82z"/>
</g>
<rect x="873.49" y="38.69" class="st0" width="56.69" height="56.69"/>
<g>
	<path d="M888.2,78.29V60.43l-3.85,1.16l-0.97-2.46l6.08-3.27h2.69v22.43H888.2z"/>
	<path d="M911.86,56.83c1.16,0.93,2.05,2.27,2.66,4.03s0.92,3.88,0.92,6.34s-0.31,4.57-0.92,6.34s-1.5,3.11-2.66,4.04
		s-2.55,1.4-4.18,1.4s-3.02-0.47-4.18-1.4s-2.05-2.28-2.66-4.04s-0.92-3.88-0.92-6.34s0.31-4.57,0.92-6.34s1.5-3.11,2.66-4.03
		s2.55-1.39,4.18-1.39S910.7,55.9,911.86,56.83z M905.56,59.68c-0.59,0.67-1.03,1.65-1.34,2.93s-0.47,2.81-0.47,4.59
		c0,0.91,0.05,1.81,0.14,2.69l6.94-8.24c-0.33-0.96-0.76-1.7-1.3-2.21s-1.16-0.76-1.86-0.76C906.85,58.67,906.15,59.01,905.56,59.68
		z M909.78,74.72c0.59-0.68,1.04-1.66,1.35-2.94s0.46-2.81,0.46-4.59c0-1.05-0.05-2.01-0.16-2.87l-6.98,8.3
		c0.33,1.01,0.77,1.78,1.31,2.31s1.18,0.8,1.91,0.8C908.49,75.74,909.2,75.4,909.78,74.72z"/>
</g>
<g>
	<path d="M268.3,13.99c0.81,1.36,1.21,3.23,1.21,5.62c0,2.45-0.4,4.34-1.2,5.66c-0.8,1.33-1.94,1.99-3.43,1.99s-2.63-0.66-3.43-1.99
		c-0.8-1.33-1.2-3.22-1.2-5.66c0-2.38,0.4-4.26,1.21-5.62c0.81-1.36,1.95-2.04,3.42-2.04C266.35,11.95,267.49,12.63,268.3,13.99z
		 M262.74,15.08c-0.51,1.11-0.77,2.62-0.77,4.52c0,1.04,0.07,1.96,0.22,2.76l5.09-6.58c-0.24-0.77-0.56-1.36-0.97-1.76
		c-0.41-0.41-0.88-0.61-1.43-0.61C263.97,13.42,263.26,13.97,262.74,15.08z M267.02,24.19c0.51-1.07,0.77-2.6,0.77-4.58
		c0-0.93-0.06-1.73-0.17-2.4l-5.09,6.48c0.51,1.41,1.3,2.11,2.35,2.11C265.79,25.8,266.5,25.26,267.02,24.19z"/>
</g>
<g>
	<path d="M330.27,27V14.11L327.24,15l-0.38-0.94l3.91-2.04h1.18V27H330.27z"/>
</g>
<g>
	<path d="M402.94,25.66l1.94-1.97c1.3-1.3,2.27-2.31,2.92-3.05s1.16-1.47,1.55-2.2c0.38-0.73,0.58-1.48,0.58-2.27
		c0-0.98-0.23-1.68-0.7-2.11c-0.46-0.43-1.08-0.65-1.85-0.65c-0.69,0-1.32,0.15-1.91,0.46c-0.58,0.3-0.97,0.64-1.16,1.01
		c-0.1,0.18-0.19,0.36-0.29,0.54c-0.1,0.18-0.14,0.29-0.14,0.32c0,0.02,0.01,0.02,0.02,0.02c0.02,0,0.05-0.01,0.1-0.04
		c0.05-0.02,0.08,0,0.1,0.06l-0.07,0.14l-0.22-0.12l-1.22-0.96c0.48-0.93,1.14-1.64,1.97-2.15s1.77-0.76,2.81-0.76
		c1.28,0,2.32,0.38,3.11,1.15s1.19,1.81,1.19,3.12c0,0.86-0.21,1.7-0.62,2.52s-0.95,1.59-1.6,2.33c-0.65,0.74-1.55,1.67-2.7,2.81
		l-1.63,1.66h5.57c0.26,0,0.44-0.02,0.56-0.05c0.12-0.03,0.23-0.1,0.32-0.19h0.17V27h-8.78V25.66z"/>
</g>
<g>
	<path d="M476.53,20.47c0.51,0.64,0.77,1.45,0.77,2.42c0,0.8-0.18,1.53-0.53,2.2c-0.35,0.66-0.86,1.19-1.54,1.58
		c-0.67,0.39-1.48,0.59-2.42,0.59c-0.8,0-1.56-0.14-2.27-0.43c-0.71-0.29-1.32-0.71-1.84-1.27l1.1-1.32l0.02-0.02l0.02,0.02
		c0.4,0.51,0.81,0.9,1.24,1.18c0.42,0.27,0.97,0.41,1.64,0.41c0.93,0,1.63-0.27,2.11-0.82c0.48-0.54,0.72-1.27,0.72-2.18
		c0-0.99-0.3-1.74-0.9-2.23c-0.6-0.5-1.44-0.74-2.53-0.74c-0.16,0-0.42,0.02-0.77,0.05v-1.34c1.42,0,2.4-0.26,2.92-0.79
		c0.52-0.53,0.78-1.25,0.78-2.16c0-0.67-0.2-1.21-0.59-1.61c-0.39-0.4-0.91-0.6-1.55-0.6c-1.04,0-1.95,0.37-2.74,1.1l-1.01-1.01
		c0.98-1.02,2.22-1.54,3.72-1.54c1.2,0,2.15,0.34,2.84,1.02c0.7,0.68,1.04,1.58,1.04,2.7c0,0.82-0.2,1.53-0.6,2.14
		c-0.4,0.61-0.98,1.03-1.75,1.27C475.32,19.37,476.02,19.83,476.53,20.47z M469.8,24.1c0.04,0.03,0.07,0.06,0.08,0.07l-0.05,0.05
		C469.77,24.1,469.76,24.06,469.8,24.1z M470.03,24.23c-0.05-0.01-0.1-0.03-0.14-0.06l0.1-0.12l0.12,0.12
		C470.1,24.22,470.08,24.24,470.03,24.23z"/>
</g>
<g>
	<path d="M546.98,27v-3.67h-6.48V22.1l6.84-10.08h1.42v9.91h1.92v1.42h-1.92V27H546.98z M542.44,21.91h4.54v-6.86L542.44,21.91z"/>
</g>
<g>
	<path d="M621.69,17.89c0.68,0.41,1.22,0.99,1.61,1.75c0.39,0.76,0.59,1.64,0.59,2.65c0,1.01-0.2,1.89-0.61,2.64
		c-0.41,0.75-0.97,1.33-1.68,1.73s-1.52,0.6-2.41,0.6c-0.91,0-1.76-0.2-2.53-0.6s-1.41-0.97-1.91-1.7l1.34-1.01l0.02-0.02
		c0.02,0,0.02,0.01,0.02,0.02c0.42,0.64,0.86,1.11,1.32,1.4c0.46,0.3,1.07,0.44,1.82,0.44c0.51,0,0.99-0.15,1.44-0.44
		c0.45-0.3,0.8-0.71,1.07-1.25c0.26-0.54,0.4-1.16,0.4-1.88c0-1.09-0.29-1.95-0.88-2.59c-0.58-0.64-1.32-0.96-2.2-0.96
		c-0.51,0-1.02,0.12-1.51,0.37c-0.5,0.25-0.93,0.6-1.3,1.04l-1.06-0.43l0.5-7.61h7.58v1.51h-6.17l-0.24,4.3
		c0.78-0.38,1.6-0.58,2.45-0.58C620.24,17.28,621.01,17.48,621.69,17.89z M616.16,23.9l-0.05,0.02
		C616.03,23.8,616.05,23.79,616.16,23.9z M616.16,23.9l0.12-0.1l0.1,0.12C616.38,24.02,616.31,24.02,616.16,23.9z"/>
</g>
<g>
	<path d="M690.15,17.96c0.62,0.41,1.12,0.98,1.49,1.73c0.37,0.74,0.55,1.6,0.55,2.56c0,0.98-0.19,1.84-0.56,2.59
		c-0.38,0.75-0.89,1.34-1.55,1.76s-1.38,0.64-2.16,0.64c-1.47,0-2.62-0.63-3.43-1.88c-0.82-1.26-1.22-2.98-1.22-5.17
		c0-1.76,0.22-3.26,0.65-4.51s1.04-2.19,1.84-2.83c0.79-0.64,1.72-0.96,2.8-0.96c1.25,0,2.34,0.46,3.29,1.37l-1.06,1.2l-0.02,0.02
		c-0.34-0.42-0.66-0.7-0.97-0.86c-0.31-0.16-0.71-0.24-1.19-0.24c-0.53,0-1.06,0.16-1.61,0.49c-0.54,0.33-1.02,0.92-1.43,1.78
		c-0.41,0.86-0.62,2.03-0.64,3.52c0.34-0.56,0.79-1,1.36-1.32c0.57-0.32,1.17-0.48,1.81-0.48
		C688.83,17.35,689.52,17.56,690.15,17.96z M689.81,24.83c0.5-0.62,0.74-1.47,0.74-2.56c0-0.75-0.13-1.39-0.38-1.91
		c-0.26-0.52-0.58-0.91-0.98-1.16s-0.82-0.38-1.25-0.38c-0.56,0-1.1,0.19-1.63,0.56c-0.53,0.38-0.96,0.86-1.3,1.45
		c-0.03,0.26-0.05,0.46-0.05,0.62c0,0.7,0.12,1.38,0.37,2.04c0.25,0.66,0.6,1.2,1.07,1.62c0.46,0.42,0.99,0.64,1.58,0.64
		C688.71,25.75,689.31,25.44,689.81,24.83z M690.7,14.54l-0.1,0.1l-0.12-0.12C690.48,14.42,690.55,14.43,690.7,14.54z M690.81,14.6
		c-0.06-0.04-0.09-0.06-0.11-0.06l0.05-0.07C690.84,14.6,690.86,14.64,690.81,14.6z"/>
</g>
<g>
	<path d="M761.8,13.63h-6.38v-1.58h8.47v0.94c-1.97,4.96-3.55,9.63-4.75,14.02h-1.9C758.63,22.44,760.15,17.98,761.8,13.63z"/>
</g>
<g>
	<path d="M827.4,26.71c-0.7-0.35-1.23-0.83-1.6-1.44c-0.37-0.61-0.55-1.29-0.55-2.04c0-0.86,0.27-1.67,0.82-2.42
		c0.54-0.75,1.27-1.34,2.18-1.75c-0.69-0.35-1.24-0.84-1.66-1.48c-0.42-0.63-0.62-1.31-0.62-2.03c0-1.07,0.34-1.96,1.03-2.65
		c0.69-0.7,1.66-1.04,2.93-1.04c1.31,0,2.3,0.33,2.96,1c0.66,0.66,1,1.52,1,2.56c0,0.72-0.22,1.4-0.65,2.05
		c-0.43,0.65-1.01,1.16-1.73,1.55c0.86,0.4,1.56,0.97,2.09,1.72c0.53,0.74,0.79,1.55,0.79,2.41c0,0.77-0.19,1.46-0.56,2.09
		s-0.91,1.12-1.61,1.48c-0.7,0.36-1.5,0.54-2.41,0.54S828.09,27.06,827.4,26.71z M831.95,25c0.5-0.49,0.74-1.11,0.74-1.86
		c0-0.74-0.29-1.41-0.86-2.03c-0.58-0.62-1.35-1.08-2.33-1.38c-0.74,0.3-1.34,0.76-1.81,1.37c-0.47,0.61-0.71,1.26-0.71,1.97
		c0,0.75,0.26,1.38,0.78,1.9c0.52,0.51,1.22,0.77,2.1,0.77C830.75,25.73,831.45,25.48,831.95,25z M831.68,17.1
		c0.38-0.54,0.58-1.08,0.58-1.64c0-0.61-0.21-1.12-0.62-1.55s-1-0.64-1.75-0.64s-1.32,0.2-1.72,0.61c-0.39,0.41-0.59,0.91-0.59,1.5
		c0,0.67,0.22,1.22,0.65,1.66c0.43,0.43,1.1,0.89,1.99,1.37C830.81,18.07,831.3,17.64,831.68,17.1z"/>
</g>
<g>
	<path d="M901.04,12.76c0.7,0.54,1.23,1.28,1.61,2.24s0.56,2.06,0.56,3.29c0,2.94-0.44,5.16-1.32,6.66
		c-0.88,1.5-2.13,2.26-3.74,2.29c-1.44,0-2.63-0.46-3.58-1.37l1.03-1.18l0.02-0.02l0.02,0.02c0.34,0.4,0.68,0.68,1.03,0.85
		c0.35,0.17,0.79,0.25,1.32,0.25c1.09,0,1.93-0.53,2.52-1.58c0.59-1.06,0.94-2.38,1.06-3.96c-0.4,0.35-0.84,0.62-1.31,0.8
		c-0.47,0.18-1.01,0.28-1.62,0.28c-0.82,0-1.56-0.19-2.22-0.58c-0.66-0.38-1.18-0.92-1.56-1.6s-0.56-1.46-0.56-2.34
		c0-0.91,0.19-1.74,0.58-2.48c0.38-0.74,0.9-1.33,1.56-1.75c0.66-0.42,1.38-0.64,2.16-0.64C899.53,11.95,900.34,12.22,901.04,12.76z
		 M895.68,24.62l-0.05,0.05C895.53,24.56,895.55,24.54,895.68,24.62z M895.68,24.62l0.1-0.12l0.12,0.12
		C895.89,24.74,895.82,24.74,895.68,24.62z M900.37,19.58c0.46-0.19,0.87-0.51,1.24-0.96c-0.06-1.76-0.33-3.07-0.8-3.92
		c-0.47-0.86-1.18-1.28-2.12-1.28c-0.83,0-1.5,0.3-1.99,0.91s-0.74,1.43-0.74,2.47c0,0.93,0.26,1.67,0.79,2.23s1.18,0.84,1.94,0.84
		C899.35,19.87,899.91,19.78,900.37,19.58z"/>
</g>
<line class="st1" x1="334.91" y1="115" x2="334.91" y2="136"/>
<line class="st2" x1="334.91" y1="136" x2="547.5" y2="136"/>
<line class="st1" x1="547.5" y1="115" x2="547.5" y2="136"/>
<g>
	<path d="M364.71,150.17c0.43,0.37,0.64,0.84,0.64,1.43c0,0.74-0.29,1.36-0.87,1.85c-0.58,0.49-1.42,0.73-2.53,0.73
		c-1.39,0-2.56-0.43-3.49-1.3l0.72-1.22l0.02-0.02l0.02,0.02c0.37,0.48,0.76,0.84,1.15,1.08c0.4,0.24,0.94,0.36,1.62,0.36
		c0.65,0,1.16-0.12,1.53-0.35s0.56-0.55,0.56-0.96c0-0.35-0.15-0.64-0.45-0.86c-0.3-0.23-0.84-0.47-1.62-0.72
		c-2.06-0.59-3.1-1.44-3.1-2.56c0-0.64,0.26-1.14,0.78-1.51c0.52-0.37,1.27-0.56,2.24-0.56c0.74,0,1.37,0.1,1.88,0.31
		s0.98,0.54,1.4,0.98l-0.74,0.9l-0.02,0.02c-0.25-0.38-0.61-0.69-1.07-0.91c-0.46-0.22-0.93-0.33-1.41-0.33
		c-0.52,0-0.94,0.09-1.27,0.27c-0.33,0.18-0.5,0.43-0.5,0.76c0,0.3,0.17,0.58,0.5,0.83s0.94,0.5,1.82,0.76
		C363.55,149.47,364.28,149.81,364.71,150.17z M359.15,151.55c0.01,0,0.04,0.01,0.07,0.04l-0.04,0.05
		C359.15,151.58,359.14,151.55,359.15,151.55z M359.39,151.59c0,0.05-0.05,0.05-0.16,0l0.05-0.09l0.11,0.07V151.59z M364.39,147.84
		l-0.05,0.07l-0.09-0.09C364.25,147.77,364.29,147.77,364.39,147.84z M364.49,147.88c-0.01,0.01-0.02,0.01-0.04,0
		c-0.02-0.01-0.04-0.02-0.05-0.04l0.05-0.05C364.48,147.84,364.5,147.87,364.49,147.88z"/>
	<path d="M374.42,153.24c-0.79,0.59-1.66,0.88-2.61,0.88c-0.91,0-1.56-0.28-1.94-0.83c-0.38-0.55-0.57-1.45-0.57-2.7
		c0-0.2,0.01-0.56,0.04-1.06l0.16-2.7h-1.82v-1.06h1.89l0.13-2.2l1.44-0.23l0.18-0.02l0.02,0.11c-0.08,0.12-0.15,0.22-0.19,0.31
		c-0.04,0.08-0.07,0.22-0.08,0.4l-0.2,1.64h2.74v1.06h-2.81l-0.16,2.79c-0.02,0.48-0.04,0.8-0.04,0.95c0,0.96,0.11,1.61,0.33,1.95
		c0.22,0.34,0.58,0.51,1.07,0.51c0.36,0,0.69-0.07,0.99-0.2s0.64-0.34,1.03-0.63L374.42,153.24z"/>
	<path d="M382.51,146.51c0.62,0.61,0.93,1.65,0.93,3.11V154h-1.4v-1.26c-0.5,0.97-1.44,1.46-2.81,1.46c-0.91,0-1.63-0.21-2.14-0.62
		c-0.52-0.41-0.77-0.96-0.77-1.65c0-0.58,0.19-1.08,0.56-1.51s0.87-0.77,1.5-1c0.63-0.23,1.32-0.35,2.08-0.35
		c0.68,0,1.3,0.04,1.85,0.11c-0.07-0.92-0.31-1.57-0.73-1.95s-1.03-0.57-1.85-0.57c-0.41,0-0.8,0.08-1.18,0.23s-0.72,0.38-1.04,0.68
		l-0.63-0.83c0.77-0.77,1.75-1.15,2.93-1.15C380.99,145.59,381.89,145.9,382.51,146.51z M381.46,152.42
		c0.52-0.52,0.8-1.27,0.85-2.26c-0.54-0.08-1.12-0.13-1.75-0.13c-0.91,0-1.63,0.15-2.16,0.45c-0.53,0.3-0.79,0.76-0.79,1.37
		c0,0.9,0.58,1.35,1.75,1.35C380.24,153.21,380.94,152.95,381.46,152.42z"/>
	<path d="M392.09,147.48v0.02c-0.35-0.32-0.64-0.54-0.87-0.65s-0.51-0.16-0.82-0.16c-0.43,0-0.84,0.11-1.22,0.32
		c-0.38,0.22-0.7,0.54-0.94,0.98c-0.24,0.44-0.36,0.99-0.36,1.65v4.37h-1.31v-8.24h1.35l-0.04,1.51c0.23-0.54,0.58-0.96,1.05-1.26
		c0.47-0.3,0.99-0.45,1.56-0.45c0.88,0,1.6,0.3,2.18,0.9L392.09,147.48z M391.9,147.56c0-0.04,0.02-0.05,0.05-0.04
		c0.04,0.01,0.07,0.02,0.11,0.04l-0.04,0.09l-0.13-0.07V147.56z M392.16,147.59c-0.04-0.01-0.08-0.02-0.1-0.04l0.04-0.05
		C392.18,147.57,392.2,147.6,392.16,147.59z"/>
	<path d="M401.42,153.24c-0.79,0.59-1.66,0.88-2.61,0.88c-0.91,0-1.56-0.28-1.94-0.83c-0.38-0.55-0.57-1.45-0.57-2.7
		c0-0.2,0.01-0.56,0.04-1.06l0.16-2.7h-1.82v-1.06h1.89l0.13-2.2l1.44-0.23l0.18-0.02l0.02,0.11c-0.08,0.12-0.15,0.22-0.19,0.31
		c-0.04,0.08-0.07,0.22-0.08,0.4l-0.2,1.64h2.74v1.06h-2.81l-0.16,2.79c-0.02,0.48-0.04,0.8-0.04,0.95c0,0.96,0.11,1.61,0.33,1.95
		c0.22,0.34,0.58,0.51,1.07,0.51c0.36,0,0.69-0.07,0.99-0.2s0.64-0.34,1.03-0.63L401.42,153.24z"/>
	<path d="M405.97,148.15c-0.22-0.2-0.32-0.44-0.32-0.72c0-0.29,0.1-0.53,0.31-0.74c0.21-0.2,0.46-0.31,0.75-0.31
		c0.29,0,0.54,0.1,0.76,0.31c0.22,0.2,0.32,0.45,0.32,0.74c0,0.28-0.11,0.52-0.32,0.72c-0.22,0.2-0.47,0.31-0.76,0.31
		C406.43,148.46,406.19,148.35,405.97,148.15z M405.95,153.9c-0.2-0.2-0.31-0.44-0.31-0.73s0.1-0.53,0.31-0.74
		c0.21-0.2,0.46-0.31,0.75-0.31c0.29,0,0.54,0.1,0.76,0.31s0.32,0.45,0.32,0.74c0,0.28-0.1,0.52-0.31,0.72
		c-0.21,0.2-0.46,0.31-0.76,0.31C406.41,154.2,406.16,154.1,405.95,153.9z"/>
	<path d="M424.57,154v-9.67L422.3,145l-0.29-0.7l2.93-1.53h0.88V154H424.57z"/>
	<path d="M432.4,156.48c0.34-0.31,0.61-0.65,0.84-1.01c0.22-0.36,0.33-0.65,0.33-0.88c0-0.11-0.03-0.2-0.09-0.27
		c-0.06-0.07-0.17-0.18-0.32-0.32c-0.17-0.16-0.29-0.29-0.38-0.4c-0.08-0.11-0.13-0.24-0.13-0.4c0-0.3,0.1-0.55,0.3-0.76
		c0.2-0.2,0.45-0.31,0.77-0.31c0.32,0,0.61,0.14,0.85,0.42c0.25,0.28,0.37,0.64,0.37,1.07c0,0.94-0.64,2.06-1.93,3.38L432.4,156.48z
		"/>
	<path d="M448.85,154v-1.04h2.43v-9.88h-2.32v-1.04h3.64v10.93H455V154H448.85z"/>
	<path d="M458.4,153.06c-0.73-0.74-1.09-1.79-1.09-3.15c0-0.9,0.17-1.68,0.5-2.33c0.34-0.65,0.79-1.15,1.36-1.49
		c0.57-0.34,1.21-0.51,1.92-0.51c1,0,1.8,0.33,2.42,0.99c0.62,0.66,0.93,1.63,0.93,2.92c0,0.13-0.01,0.33-0.04,0.59h-5.85
		c0.05,1.01,0.33,1.77,0.85,2.29c0.52,0.52,1.17,0.77,1.96,0.77c0.86,0,1.57-0.31,2.12-0.92l0.72,0.7c-0.7,0.84-1.66,1.26-2.88,1.26
		C460.1,154.18,459.12,153.81,458.4,153.06z M463.12,149.07c0-0.77-0.2-1.38-0.58-1.83c-0.39-0.45-0.9-0.68-1.54-0.68
		c-0.6,0-1.12,0.21-1.57,0.63c-0.44,0.42-0.72,1.04-0.83,1.87H463.12z"/>
	<path d="M466.72,145.77h1.26v1.46c0.32-0.5,0.73-0.91,1.22-1.21c0.49-0.3,1.01-0.45,1.57-0.45c0.73,0,1.32,0.28,1.75,0.84
		c0.44,0.56,0.66,1.42,0.66,2.6V154h-1.26v-4.95c0-0.82-0.14-1.41-0.41-1.78s-0.64-0.56-1.1-0.56c-0.37,0-0.75,0.11-1.12,0.32
		c-0.38,0.22-0.69,0.52-0.94,0.91c-0.25,0.39-0.37,0.83-0.37,1.32V154h-1.26V145.77z"/>
	<path d="M482.51,146.6c-0.58,0-1.06,0.13-1.44,0.38c0.2,0.41,0.31,0.86,0.31,1.35c0,0.54-0.12,1.03-0.35,1.47
		c-0.23,0.44-0.57,0.78-1.01,1.04s-0.95,0.38-1.52,0.38c-0.46,0-0.88-0.08-1.28-0.25c-0.22,0.26-0.32,0.52-0.32,0.76
		c0,0.29,0.18,0.5,0.55,0.62s1.02,0.19,1.97,0.19c1.16,0,1.96,0.18,2.38,0.53s0.64,0.87,0.64,1.56c0,0.71-0.29,1.3-0.86,1.77
		c-0.58,0.47-1.48,0.71-2.7,0.71c-1.18,0-2.1-0.18-2.76-0.54c-0.67-0.36-1-0.89-1-1.58c0-0.43,0.12-0.8,0.36-1.12
		s0.55-0.56,0.92-0.74c-0.4-0.26-0.59-0.63-0.59-1.1c0-0.48,0.25-0.98,0.74-1.51c-0.3-0.26-0.53-0.58-0.68-0.95
		s-0.23-0.78-0.23-1.22c0-0.53,0.12-1.01,0.35-1.45c0.23-0.44,0.57-0.78,1.01-1.03s0.95-0.38,1.52-0.38c0.88,0,1.58,0.28,2.11,0.85
		c0.29-0.26,0.58-0.46,0.89-0.58c0.31-0.13,0.64-0.19,1.02-0.19l0.31,0.02l0.16,1.06C482.87,146.61,482.71,146.6,482.51,146.6z
		 M481.09,154.13c-0.1-0.16-0.3-0.28-0.6-0.36c-0.3-0.08-0.75-0.12-1.35-0.12c-0.86,0-1.55-0.08-2.07-0.23
		c-0.29,0.19-0.49,0.39-0.6,0.59c-0.11,0.2-0.17,0.47-0.17,0.81c0,0.41,0.23,0.73,0.68,0.95c0.46,0.23,1.09,0.34,1.91,0.34
		c0.79,0,1.38-0.12,1.77-0.35c0.39-0.23,0.58-0.56,0.58-0.96C481.25,154.52,481.2,154.3,481.09,154.13z M479.78,149.61
		c0.34-0.35,0.51-0.77,0.51-1.28s-0.17-0.93-0.51-1.28c-0.34-0.35-0.77-0.52-1.29-0.52c-0.52,0-0.95,0.17-1.29,0.52
		c-0.34,0.35-0.51,0.77-0.51,1.28s0.17,0.93,0.51,1.28c0.34,0.35,0.77,0.52,1.29,0.52C479.01,150.13,479.44,149.96,479.78,149.61z"
		/>
	<path d="M491.42,153.24c-0.79,0.59-1.66,0.88-2.61,0.88c-0.91,0-1.56-0.28-1.93-0.83c-0.38-0.55-0.57-1.45-0.57-2.7
		c0-0.2,0.01-0.56,0.04-1.06l0.16-2.7h-1.82v-1.06h1.89l0.13-2.2l1.44-0.23l0.18-0.02l0.02,0.11c-0.08,0.12-0.15,0.22-0.19,0.31
		s-0.07,0.22-0.08,0.4l-0.2,1.64h2.74v1.06h-2.81l-0.16,2.79c-0.02,0.48-0.04,0.8-0.04,0.95c0,0.96,0.11,1.61,0.33,1.95
		c0.22,0.34,0.58,0.51,1.07,0.51c0.36,0,0.69-0.07,0.99-0.2c0.3-0.13,0.64-0.34,1.02-0.63L491.42,153.24z"/>
	<path d="M493.74,142.03h1.42v0.13c-0.07,0.07-0.12,0.15-0.14,0.23c-0.02,0.08-0.03,0.23-0.03,0.43v4.41
		c0.32-0.5,0.73-0.91,1.21-1.21c0.49-0.3,0.98-0.45,1.49-0.45c0.78,0,1.39,0.28,1.84,0.83c0.44,0.55,0.67,1.42,0.67,2.61V154h-1.26
		v-4.95c0-0.82-0.14-1.41-0.41-1.78c-0.28-0.37-0.64-0.56-1.1-0.56c-0.38,0-0.76,0.11-1.13,0.31c-0.37,0.21-0.68,0.51-0.93,0.9
		c-0.25,0.39-0.37,0.84-0.37,1.34V154h-1.26V142.03z"/>
	<path d="M504.97,148.15c-0.22-0.2-0.32-0.44-0.32-0.72c0-0.29,0.11-0.53,0.32-0.74c0.21-0.2,0.46-0.31,0.75-0.31
		s0.54,0.1,0.76,0.31c0.22,0.2,0.32,0.45,0.32,0.74c0,0.28-0.11,0.52-0.32,0.72c-0.22,0.2-0.47,0.31-0.76,0.31
		C505.43,148.46,505.19,148.35,504.97,148.15z M504.95,153.9c-0.2-0.2-0.31-0.44-0.31-0.73s0.11-0.53,0.32-0.74s0.46-0.31,0.75-0.31
		s0.54,0.1,0.76,0.31s0.32,0.45,0.32,0.74c0,0.28-0.11,0.52-0.32,0.72c-0.21,0.2-0.46,0.31-0.76,0.31S505.16,154.1,504.95,153.9z"/>
	<path d="M525.15,154v-2.75h-4.86v-0.92l5.13-7.56h1.06v7.43h1.44v1.06h-1.44V154H525.15z M521.75,150.18h3.4v-5.15L521.75,150.18z"
		/>
</g>
<line class="st1" x1="334.91" y1="169.5" x2="334.91" y2="190.5"/>
<line class="st2" x1="334.91" y1="190.5" x2="901.34" y2="190.5"/>
<line class="st1" x1="901.34" y1="169.5" x2="901.34" y2="190.5"/>
<g>
	<path d="M536.75,206.17c0.43,0.37,0.64,0.84,0.64,1.43c0,0.74-0.29,1.36-0.87,1.85s-1.42,0.73-2.53,0.73
		c-1.39,0-2.56-0.43-3.49-1.3l0.72-1.22l0.02-0.02l0.02,0.02c0.37,0.48,0.76,0.84,1.15,1.08s0.94,0.36,1.62,0.36
		c0.65,0,1.16-0.12,1.53-0.35c0.37-0.23,0.56-0.55,0.56-0.96c0-0.35-0.15-0.64-0.45-0.86c-0.3-0.23-0.84-0.47-1.62-0.72
		c-2.06-0.59-3.1-1.44-3.1-2.56c0-0.64,0.26-1.14,0.78-1.51c0.52-0.37,1.27-0.56,2.24-0.56c0.74,0,1.37,0.1,1.88,0.31
		c0.51,0.21,0.98,0.54,1.4,0.98l-0.74,0.9l-0.02,0.02c-0.25-0.38-0.61-0.69-1.07-0.91c-0.46-0.22-0.93-0.33-1.41-0.33
		c-0.52,0-0.94,0.09-1.27,0.27c-0.33,0.18-0.5,0.43-0.5,0.76c0,0.3,0.17,0.58,0.5,0.83s0.94,0.5,1.82,0.76
		C535.6,205.47,536.33,205.81,536.75,206.17z M531.2,207.55c0.01,0,0.04,0.01,0.07,0.04l-0.04,0.05
		C531.2,207.58,531.19,207.55,531.2,207.55z M531.43,207.59c0,0.05-0.05,0.05-0.16,0l0.05-0.09l0.11,0.07V207.59z M536.44,203.84
		l-0.05,0.07l-0.09-0.09C536.29,203.77,536.34,203.77,536.44,203.84z M536.54,203.88c-0.01,0.01-0.02,0.01-0.04,0
		c-0.02-0.01-0.04-0.02-0.05-0.04l0.05-0.05C536.53,203.84,536.54,203.87,536.54,203.88z"/>
	<path d="M546.46,209.24c-0.79,0.59-1.66,0.88-2.61,0.88c-0.91,0-1.56-0.28-1.94-0.83c-0.38-0.55-0.57-1.45-0.57-2.7
		c0-0.2,0.01-0.56,0.04-1.06l0.16-2.7h-1.82v-1.06h1.89l0.13-2.2l1.44-0.23l0.18-0.02l0.02,0.11c-0.08,0.12-0.15,0.22-0.19,0.31
		s-0.07,0.22-0.08,0.4l-0.2,1.64h2.74v1.06h-2.81l-0.16,2.79c-0.02,0.48-0.04,0.8-0.04,0.95c0,0.96,0.11,1.61,0.33,1.95
		c0.22,0.34,0.58,0.51,1.07,0.51c0.36,0,0.69-0.07,0.99-0.2c0.3-0.13,0.64-0.34,1.03-0.63L546.46,209.24z"/>
	<path d="M554.55,202.51c0.62,0.61,0.93,1.65,0.93,3.11V210h-1.4v-1.26c-0.5,0.97-1.44,1.46-2.81,1.46c-0.91,0-1.63-0.21-2.14-0.62
		s-0.77-0.96-0.77-1.65c0-0.58,0.19-1.08,0.56-1.51c0.37-0.43,0.87-0.77,1.5-1c0.63-0.23,1.32-0.35,2.08-0.35
		c0.68,0,1.3,0.04,1.85,0.11c-0.07-0.92-0.32-1.57-0.73-1.95s-1.03-0.57-1.84-0.57c-0.41,0-0.8,0.08-1.18,0.23
		c-0.38,0.16-0.72,0.38-1.04,0.68l-0.63-0.83c0.77-0.77,1.75-1.15,2.93-1.15C553.04,201.59,553.94,201.9,554.55,202.51z
		 M553.5,208.42c0.52-0.52,0.8-1.27,0.85-2.26c-0.54-0.08-1.12-0.13-1.75-0.13c-0.91,0-1.63,0.15-2.16,0.45
		c-0.53,0.3-0.79,0.76-0.79,1.37c0,0.9,0.58,1.35,1.75,1.35C552.28,209.21,552.98,208.95,553.5,208.42z"/>
	<path d="M564.14,203.48v0.02c-0.35-0.32-0.64-0.54-0.87-0.65c-0.23-0.11-0.51-0.16-0.82-0.16c-0.43,0-0.84,0.11-1.22,0.32
		c-0.38,0.22-0.7,0.54-0.94,0.98s-0.36,0.99-0.36,1.65v4.37h-1.31v-8.24h1.35l-0.04,1.51c0.23-0.54,0.58-0.96,1.05-1.26
		c0.47-0.3,0.99-0.45,1.56-0.45c0.88,0,1.6,0.3,2.18,0.9L564.14,203.48z M563.94,203.56c0-0.04,0.02-0.05,0.05-0.04
		c0.04,0.01,0.07,0.02,0.11,0.04l-0.04,0.09l-0.13-0.07V203.56z M564.2,203.59c-0.04-0.01-0.08-0.02-0.1-0.04l0.04-0.05
		C564.22,203.57,564.24,203.6,564.2,203.59z"/>
	<path d="M573.46,209.24c-0.79,0.59-1.66,0.88-2.61,0.88c-0.91,0-1.56-0.28-1.94-0.83c-0.38-0.55-0.57-1.45-0.57-2.7
		c0-0.2,0.01-0.56,0.04-1.06l0.16-2.7h-1.82v-1.06h1.89l0.13-2.2l1.44-0.23l0.18-0.02l0.02,0.11c-0.08,0.12-0.15,0.22-0.19,0.31
		s-0.07,0.22-0.08,0.4l-0.2,1.64h2.74v1.06h-2.81l-0.16,2.79c-0.02,0.48-0.04,0.8-0.04,0.95c0,0.96,0.11,1.61,0.33,1.95
		c0.22,0.34,0.58,0.51,1.07,0.51c0.36,0,0.69-0.07,0.99-0.2c0.3-0.13,0.64-0.34,1.03-0.63L573.46,209.24z"/>
	<path d="M578.02,204.15c-0.22-0.2-0.32-0.44-0.32-0.72c0-0.29,0.11-0.53,0.31-0.74c0.21-0.2,0.46-0.31,0.75-0.31
		c0.29,0,0.54,0.1,0.76,0.31c0.21,0.2,0.32,0.45,0.32,0.74c0,0.28-0.11,0.52-0.32,0.72c-0.22,0.2-0.47,0.31-0.76,0.31
		C578.48,204.46,578.23,204.35,578.02,204.15z M578,209.9c-0.2-0.2-0.31-0.44-0.31-0.73s0.11-0.53,0.31-0.74
		c0.21-0.2,0.46-0.31,0.75-0.31c0.29,0,0.54,0.1,0.76,0.31c0.21,0.21,0.32,0.45,0.32,0.74c0,0.28-0.1,0.52-0.32,0.72
		c-0.21,0.2-0.46,0.31-0.76,0.31C578.46,210.2,578.2,210.1,578,209.9z"/>
	<path d="M596.61,210v-9.67l-2.27,0.67l-0.29-0.7l2.93-1.53h0.88V210H596.61z"/>
	<path d="M604.44,212.48c0.34-0.31,0.62-0.65,0.84-1.01c0.22-0.36,0.33-0.65,0.33-0.88c0-0.11-0.03-0.2-0.09-0.27
		c-0.06-0.07-0.17-0.18-0.32-0.32c-0.17-0.16-0.29-0.29-0.38-0.4c-0.08-0.11-0.13-0.24-0.13-0.4c0-0.3,0.1-0.55,0.3-0.76
		c0.2-0.2,0.45-0.31,0.77-0.31c0.32,0,0.61,0.14,0.85,0.42c0.25,0.28,0.37,0.64,0.37,1.07c0,0.94-0.64,2.06-1.93,3.38L604.44,212.48
		z"/>
	<path class="st3" d="M620.89,210v-1.04h2.43v-9.88H621v-1.04h3.63v10.93h2.41V210H620.89z"/>
	<path class="st3" d="M630.44,209.06c-0.72-0.74-1.09-1.79-1.09-3.15c0-0.9,0.17-1.68,0.5-2.33c0.34-0.65,0.79-1.15,1.36-1.49
		c0.57-0.34,1.21-0.51,1.92-0.51c1,0,1.8,0.33,2.42,0.99c0.62,0.66,0.93,1.63,0.93,2.92c0,0.13-0.01,0.33-0.04,0.59h-5.85
		c0.05,1.01,0.33,1.77,0.85,2.29c0.52,0.52,1.17,0.78,1.96,0.78c0.87,0,1.57-0.31,2.12-0.92l0.72,0.7c-0.7,0.84-1.66,1.26-2.88,1.26
		S631.17,209.81,630.44,209.06z M635.17,205.07c0-0.77-0.2-1.38-0.59-1.83c-0.39-0.45-0.9-0.68-1.54-0.68
		c-0.6,0-1.12,0.21-1.57,0.63c-0.44,0.42-0.72,1.04-0.83,1.87H635.17z"/>
	<path class="st3" d="M638.77,201.77h1.26v1.46c0.32-0.5,0.73-0.91,1.22-1.21c0.49-0.3,1.01-0.45,1.56-0.45
		c0.73,0,1.32,0.28,1.76,0.84s0.66,1.42,0.66,2.6V210h-1.26v-4.95c0-0.82-0.14-1.41-0.41-1.78c-0.28-0.37-0.64-0.56-1.1-0.56
		c-0.37,0-0.75,0.11-1.12,0.32c-0.38,0.22-0.69,0.52-0.94,0.91c-0.25,0.39-0.37,0.83-0.37,1.32V210h-1.26V201.77z"/>
	<path class="st3" d="M654.55,202.6c-0.58,0-1.05,0.13-1.44,0.38c0.2,0.41,0.31,0.86,0.31,1.35c0,0.54-0.12,1.03-0.35,1.47
		c-0.23,0.44-0.57,0.78-1.01,1.04c-0.44,0.25-0.95,0.38-1.52,0.38c-0.46,0-0.88-0.08-1.28-0.25c-0.22,0.26-0.32,0.52-0.32,0.76
		c0,0.29,0.18,0.5,0.55,0.62c0.37,0.13,1.02,0.19,1.97,0.19c1.16,0,1.96,0.18,2.38,0.53c0.43,0.35,0.64,0.87,0.64,1.56
		c0,0.71-0.29,1.3-0.86,1.77s-1.48,0.71-2.7,0.71c-1.18,0-2.1-0.18-2.76-0.54c-0.67-0.36-1-0.89-1-1.58c0-0.43,0.12-0.8,0.36-1.12
		c0.24-0.31,0.54-0.56,0.92-0.74c-0.4-0.26-0.59-0.63-0.59-1.1c0-0.48,0.25-0.98,0.74-1.51c-0.3-0.26-0.53-0.58-0.69-0.95
		s-0.23-0.78-0.23-1.22c0-0.53,0.12-1.01,0.35-1.45c0.23-0.44,0.57-0.78,1.01-1.03c0.44-0.25,0.95-0.38,1.52-0.38
		c0.88,0,1.58,0.28,2.11,0.85c0.29-0.26,0.59-0.46,0.89-0.58c0.3-0.13,0.64-0.19,1.02-0.19l0.31,0.02l0.16,1.06
		C654.91,202.61,654.76,202.6,654.55,202.6z M653.14,210.13c-0.1-0.16-0.3-0.28-0.6-0.36s-0.75-0.12-1.35-0.12
		c-0.87,0-1.55-0.08-2.07-0.23c-0.29,0.19-0.49,0.39-0.6,0.59c-0.11,0.2-0.17,0.47-0.17,0.81c0,0.41,0.23,0.73,0.68,0.95
		c0.46,0.23,1.09,0.34,1.91,0.34c0.79,0,1.38-0.12,1.77-0.35c0.39-0.23,0.58-0.56,0.58-0.96
		C653.29,210.52,653.24,210.3,653.14,210.13z M651.83,205.61c0.34-0.35,0.51-0.77,0.51-1.28s-0.17-0.93-0.51-1.28
		c-0.34-0.35-0.77-0.52-1.29-0.52s-0.95,0.17-1.29,0.52c-0.34,0.35-0.51,0.77-0.51,1.28s0.17,0.93,0.51,1.28
		c0.34,0.35,0.77,0.52,1.29,0.52S651.48,205.96,651.83,205.61z"/>
	<path class="st3" d="M663.46,209.24c-0.79,0.59-1.66,0.88-2.61,0.88c-0.91,0-1.56-0.28-1.94-0.83c-0.38-0.55-0.57-1.45-0.57-2.7
		c0-0.2,0.01-0.56,0.04-1.06l0.16-2.7h-1.82v-1.06h1.89l0.13-2.2l1.44-0.23l0.18-0.02l0.02,0.11c-0.08,0.12-0.15,0.22-0.19,0.31
		c-0.04,0.08-0.07,0.22-0.08,0.4l-0.2,1.64h2.73v1.06h-2.81l-0.16,2.79c-0.03,0.48-0.04,0.8-0.04,0.95c0,0.96,0.11,1.61,0.33,1.95
		c0.22,0.34,0.58,0.51,1.07,0.51c0.36,0,0.69-0.07,0.99-0.2c0.3-0.13,0.64-0.34,1.03-0.63L663.46,209.24z"/>
	<path class="st3" d="M665.79,198.03h1.42v0.13c-0.07,0.07-0.12,0.15-0.13,0.23s-0.03,0.23-0.03,0.43v4.41
		c0.32-0.5,0.73-0.91,1.21-1.21c0.49-0.3,0.98-0.45,1.49-0.45c0.78,0,1.39,0.28,1.84,0.83c0.44,0.55,0.67,1.42,0.67,2.61V210h-1.26
		v-4.95c0-0.82-0.14-1.41-0.41-1.78c-0.28-0.37-0.64-0.56-1.1-0.56c-0.38,0-0.76,0.11-1.13,0.31c-0.37,0.21-0.68,0.51-0.93,0.9
		c-0.25,0.39-0.37,0.84-0.37,1.34V210h-1.26V198.03z"/>
	<path class="st3" d="M677.02,204.15c-0.22-0.2-0.32-0.44-0.32-0.72c0-0.29,0.11-0.53,0.31-0.74c0.21-0.2,0.46-0.31,0.75-0.31
		c0.29,0,0.54,0.1,0.76,0.31c0.21,0.2,0.32,0.45,0.32,0.74c0,0.28-0.11,0.52-0.32,0.72c-0.22,0.2-0.47,0.31-0.76,0.31
		C677.48,204.46,677.23,204.35,677.02,204.15z M677,209.9c-0.21-0.2-0.31-0.44-0.31-0.73s0.11-0.53,0.31-0.74
		c0.21-0.2,0.46-0.31,0.75-0.31c0.29,0,0.54,0.1,0.76,0.31c0.21,0.21,0.32,0.45,0.32,0.74c0,0.28-0.11,0.52-0.32,0.72
		c-0.21,0.2-0.46,0.31-0.76,0.31C677.46,210.2,677.2,210.1,677,209.9z"/>
	<path class="st3" d="M695.61,210v-9.67l-2.27,0.67l-0.29-0.7l2.93-1.53h0.88V210H695.61z"/>
	<path class="st3" d="M707.54,200.24c0.61,1.02,0.91,2.42,0.91,4.21c0,1.84-0.3,3.25-0.9,4.25s-1.46,1.49-2.57,1.49
		c-1.12,0-1.97-0.5-2.57-1.49c-0.6-1-0.9-2.41-0.9-4.25c0-1.79,0.3-3.19,0.91-4.21s1.46-1.53,2.56-1.53S706.93,199.22,707.54,200.24
		z M703.37,201.06c-0.38,0.83-0.58,1.97-0.58,3.39c0,0.78,0.05,1.47,0.16,2.07l3.82-4.93c-0.18-0.58-0.42-1.02-0.73-1.32
		c-0.31-0.31-0.66-0.46-1.07-0.46C704.29,199.81,703.75,200.23,703.37,201.06z M706.57,207.89c0.38-0.8,0.58-1.95,0.58-3.44
		c0-0.7-0.04-1.3-0.12-1.8l-3.82,4.86c0.38,1.06,0.97,1.58,1.76,1.58C705.65,209.1,706.19,208.7,706.57,207.89z"/>
</g>
<line class="st1" x1="618.37" y1="237" x2="618.37" y2="258"/>
<line class="st2" x1="618.37" y1="258" x2="760.1" y2="258"/>
<line class="st1" x1="760.1" y1="237" x2="760.1" y2="258"/>
<g>
	<path d="M607.17,272.17c0.43,0.37,0.64,0.84,0.64,1.43c0,0.74-0.29,1.36-0.87,1.85s-1.43,0.73-2.53,0.73
		c-1.39,0-2.56-0.43-3.49-1.3l0.72-1.22l0.02-0.02l0.02,0.02c0.37,0.48,0.76,0.84,1.15,1.08s0.94,0.36,1.62,0.36
		c0.65,0,1.16-0.12,1.53-0.35c0.37-0.23,0.56-0.55,0.56-0.96c0-0.35-0.15-0.64-0.45-0.86c-0.3-0.23-0.84-0.47-1.62-0.72
		c-2.06-0.59-3.1-1.44-3.1-2.56c0-0.64,0.26-1.14,0.78-1.51c0.52-0.37,1.27-0.56,2.24-0.56c0.74,0,1.37,0.11,1.88,0.31
		c0.51,0.21,0.97,0.54,1.39,0.98l-0.74,0.9l-0.02,0.02c-0.25-0.38-0.61-0.69-1.07-0.91c-0.46-0.22-0.93-0.33-1.41-0.33
		c-0.52,0-0.94,0.09-1.27,0.27c-0.33,0.18-0.5,0.43-0.5,0.76c0,0.3,0.17,0.58,0.5,0.83s0.94,0.5,1.82,0.76
		C606.02,271.47,606.75,271.81,607.17,272.17z M601.62,273.55c0.01,0,0.04,0.01,0.07,0.04l-0.04,0.05
		C601.62,273.58,601.61,273.55,601.62,273.55z M601.85,273.59c0,0.05-0.05,0.05-0.16,0l0.05-0.09l0.11,0.07V273.59z M606.86,269.84
		l-0.05,0.07l-0.09-0.09C606.71,269.77,606.76,269.77,606.86,269.84z M606.96,269.88c-0.01,0.01-0.02,0.01-0.04,0
		c-0.02-0.01-0.04-0.02-0.05-0.04l0.05-0.05C606.95,269.84,606.96,269.87,606.96,269.88z"/>
	<path d="M616.88,275.24c-0.79,0.59-1.66,0.88-2.61,0.88c-0.91,0-1.56-0.28-1.93-0.83s-0.57-1.45-0.57-2.7
		c0-0.2,0.01-0.56,0.04-1.06l0.16-2.7h-1.82v-1.06h1.89l0.13-2.2l1.44-0.23l0.18-0.02l0.02,0.11c-0.08,0.12-0.15,0.22-0.19,0.31
		c-0.04,0.08-0.07,0.22-0.08,0.4l-0.2,1.64h2.74v1.06h-2.81l-0.16,2.79c-0.02,0.48-0.04,0.8-0.04,0.95c0,0.96,0.11,1.61,0.33,1.95
		c0.22,0.34,0.58,0.51,1.07,0.51c0.36,0,0.69-0.07,0.99-0.2c0.3-0.13,0.64-0.34,1.03-0.63L616.88,275.24z"/>
	<path d="M624.97,268.51c0.62,0.61,0.93,1.65,0.93,3.11V276h-1.4v-1.26c-0.5,0.97-1.44,1.46-2.81,1.46c-0.91,0-1.62-0.21-2.14-0.62
		c-0.52-0.41-0.77-0.96-0.77-1.65c0-0.58,0.19-1.08,0.56-1.51s0.87-0.77,1.5-1s1.32-0.35,2.08-0.35c0.68,0,1.3,0.04,1.85,0.11
		c-0.07-0.92-0.31-1.57-0.73-1.95c-0.41-0.38-1.03-0.57-1.85-0.57c-0.41,0-0.8,0.08-1.18,0.23c-0.38,0.16-0.72,0.38-1.04,0.68
		l-0.63-0.83c0.77-0.77,1.75-1.15,2.93-1.15C623.46,267.59,624.36,267.9,624.97,268.51z M623.92,274.42
		c0.52-0.52,0.8-1.27,0.85-2.26c-0.54-0.08-1.12-0.13-1.75-0.13c-0.91,0-1.63,0.15-2.16,0.45s-0.79,0.76-0.79,1.37
		c0,0.9,0.58,1.35,1.75,1.35C622.7,275.21,623.4,274.95,623.92,274.42z"/>
	<path d="M634.56,269.48v0.02c-0.35-0.32-0.64-0.54-0.87-0.65c-0.23-0.11-0.51-0.16-0.82-0.16c-0.43,0-0.84,0.11-1.22,0.32
		c-0.38,0.22-0.7,0.54-0.94,0.98c-0.24,0.44-0.36,0.99-0.36,1.65v4.37h-1.31v-8.24h1.35l-0.04,1.51c0.23-0.54,0.58-0.96,1.05-1.26
		c0.47-0.3,0.99-0.45,1.56-0.45c0.88,0,1.6,0.3,2.18,0.9L634.56,269.48z M634.36,269.56c0-0.04,0.02-0.05,0.05-0.04
		c0.04,0.01,0.07,0.02,0.11,0.04l-0.04,0.09l-0.13-0.07V269.56z M634.62,269.59c-0.04-0.01-0.08-0.02-0.1-0.04l0.04-0.05
		C634.64,269.57,634.66,269.6,634.62,269.59z"/>
	<path d="M643.88,275.24c-0.79,0.59-1.66,0.88-2.61,0.88c-0.91,0-1.56-0.28-1.93-0.83s-0.57-1.45-0.57-2.7
		c0-0.2,0.01-0.56,0.04-1.06l0.16-2.7h-1.82v-1.06h1.89l0.13-2.2l1.44-0.23l0.18-0.02l0.02,0.11c-0.08,0.12-0.15,0.22-0.19,0.31
		c-0.04,0.08-0.07,0.22-0.08,0.4l-0.2,1.64h2.74v1.06h-2.81l-0.16,2.79c-0.02,0.48-0.04,0.8-0.04,0.95c0,0.96,0.11,1.61,0.33,1.95
		c0.22,0.34,0.58,0.51,1.07,0.51c0.36,0,0.69-0.07,0.99-0.2c0.3-0.13,0.64-0.34,1.03-0.63L643.88,275.24z"/>
	<path d="M648.44,270.15c-0.21-0.2-0.32-0.44-0.32-0.72c0-0.29,0.1-0.53,0.32-0.74c0.21-0.2,0.46-0.3,0.75-0.3
		c0.29,0,0.54,0.1,0.76,0.3c0.22,0.21,0.32,0.45,0.32,0.74c0,0.28-0.11,0.52-0.32,0.72c-0.21,0.2-0.47,0.31-0.76,0.31
		C648.9,270.46,648.65,270.35,648.44,270.15z M648.42,275.9c-0.2-0.2-0.31-0.44-0.31-0.73s0.1-0.53,0.32-0.74
		c0.21-0.2,0.46-0.31,0.75-0.31c0.29,0,0.54,0.1,0.76,0.31c0.22,0.21,0.32,0.45,0.32,0.74c0,0.28-0.11,0.52-0.31,0.72
		c-0.21,0.2-0.46,0.31-0.77,0.31C648.87,276.2,648.62,276.1,648.42,275.9z"/>
	<path d="M664.17,270.94v-1.21h6.48v1.21H664.17z"/>
	<path d="M678.25,269.17c0.51,0.31,0.91,0.74,1.21,1.31c0.29,0.57,0.44,1.23,0.44,1.99c0,0.76-0.15,1.42-0.46,1.98s-0.73,1-1.26,1.3
		c-0.54,0.3-1.14,0.45-1.81,0.45c-0.68,0-1.32-0.15-1.9-0.45s-1.06-0.73-1.43-1.28l1.01-0.76l0.02-0.02c0.01,0,0.02,0.01,0.02,0.02
		c0.31,0.48,0.64,0.83,0.99,1.05c0.35,0.22,0.8,0.33,1.37,0.33c0.38,0,0.74-0.11,1.08-0.33c0.34-0.22,0.6-0.53,0.8-0.94
		c0.2-0.4,0.3-0.87,0.3-1.41c0-0.82-0.22-1.46-0.66-1.94c-0.44-0.48-0.99-0.72-1.65-0.72c-0.38,0-0.76,0.09-1.13,0.28
		c-0.37,0.19-0.7,0.45-0.97,0.78l-0.79-0.32l0.38-5.71h5.69v1.13h-4.63l-0.18,3.22c0.59-0.29,1.2-0.43,1.84-0.43
		C677.16,268.71,677.74,268.86,678.25,269.17z M674.1,273.68l-0.04,0.02C674.01,273.6,674.02,273.59,674.1,273.68z M674.1,273.68
		l0.09-0.07l0.07,0.09C674.27,273.77,674.21,273.76,674.1,273.68z"/>
	<path d="M683.86,278.48c0.34-0.31,0.62-0.65,0.84-1.01c0.22-0.36,0.33-0.65,0.33-0.88c0-0.11-0.03-0.2-0.09-0.27
		c-0.06-0.07-0.17-0.18-0.32-0.32c-0.17-0.16-0.29-0.29-0.38-0.4c-0.08-0.11-0.13-0.24-0.13-0.4c0-0.3,0.1-0.55,0.3-0.76
		c0.2-0.2,0.45-0.31,0.77-0.31c0.32,0,0.61,0.14,0.86,0.42c0.25,0.28,0.37,0.64,0.37,1.07c0,0.94-0.64,2.06-1.93,3.38L683.86,278.48
		z"/>
	<path d="M700.31,276v-1.04h2.43v-9.88h-2.32v-1.04h3.64v10.93h2.41V276H700.31z"/>
	<path d="M709.86,275.06c-0.73-0.74-1.09-1.79-1.09-3.15c0-0.9,0.17-1.68,0.5-2.33c0.34-0.65,0.79-1.15,1.36-1.49
		c0.57-0.34,1.21-0.51,1.92-0.51c1,0,1.8,0.33,2.42,0.99c0.62,0.66,0.93,1.63,0.93,2.92c0,0.13-0.01,0.33-0.04,0.59h-5.85
		c0.05,1.01,0.33,1.77,0.85,2.29c0.52,0.52,1.17,0.78,1.96,0.78c0.86,0,1.57-0.31,2.12-0.92l0.72,0.7c-0.7,0.84-1.66,1.26-2.88,1.26
		C711.56,276.18,710.59,275.81,709.86,275.06z M714.59,271.07c0-0.77-0.2-1.38-0.58-1.83c-0.39-0.45-0.9-0.67-1.54-0.67
		c-0.6,0-1.12,0.21-1.57,0.63c-0.45,0.42-0.72,1.04-0.83,1.87H714.59z"/>
	<path d="M718.19,267.77h1.26v1.46c0.32-0.5,0.73-0.91,1.22-1.21c0.49-0.3,1.01-0.45,1.57-0.45c0.73,0,1.32,0.28,1.75,0.84
		c0.44,0.56,0.66,1.42,0.66,2.6V276h-1.26v-4.95c0-0.82-0.14-1.41-0.41-1.78c-0.28-0.37-0.64-0.56-1.1-0.56
		c-0.37,0-0.75,0.11-1.12,0.32c-0.38,0.22-0.69,0.52-0.94,0.91c-0.25,0.39-0.37,0.83-0.37,1.32V276h-1.26V267.77z"/>
	<path d="M733.97,268.6c-0.58,0-1.06,0.13-1.44,0.38c0.21,0.41,0.31,0.86,0.31,1.35c0,0.54-0.12,1.03-0.35,1.47
		c-0.23,0.44-0.57,0.78-1.01,1.04c-0.44,0.25-0.95,0.38-1.52,0.38c-0.46,0-0.88-0.08-1.28-0.25c-0.21,0.26-0.32,0.52-0.32,0.76
		c0,0.29,0.18,0.5,0.55,0.62c0.37,0.13,1.02,0.19,1.97,0.19c1.16,0,1.96,0.18,2.38,0.53c0.43,0.35,0.64,0.87,0.64,1.56
		c0,0.71-0.29,1.3-0.86,1.77c-0.58,0.47-1.48,0.71-2.7,0.71c-1.18,0-2.1-0.18-2.76-0.54c-0.67-0.36-1-0.89-1-1.58
		c0-0.43,0.12-0.8,0.36-1.12c0.24-0.31,0.55-0.56,0.92-0.74c-0.39-0.26-0.59-0.63-0.59-1.1c0-0.48,0.25-0.98,0.74-1.51
		c-0.3-0.26-0.53-0.58-0.68-0.95c-0.16-0.37-0.23-0.78-0.23-1.22c0-0.53,0.12-1.01,0.35-1.45c0.23-0.44,0.57-0.78,1.01-1.04
		c0.44-0.25,0.95-0.38,1.52-0.38c0.88,0,1.58,0.28,2.11,0.85c0.29-0.26,0.58-0.46,0.89-0.59c0.31-0.12,0.64-0.19,1.02-0.19l0.3,0.02
		l0.16,1.06C734.33,268.61,734.18,268.6,733.97,268.6z M732.56,276.13c-0.1-0.16-0.3-0.28-0.6-0.36c-0.3-0.08-0.75-0.12-1.35-0.12
		c-0.86,0-1.55-0.08-2.07-0.23c-0.29,0.19-0.49,0.39-0.6,0.59c-0.12,0.2-0.17,0.47-0.17,0.81c0,0.41,0.23,0.73,0.68,0.95
		c0.46,0.23,1.09,0.34,1.91,0.34c0.79,0,1.38-0.12,1.77-0.35c0.39-0.23,0.59-0.56,0.59-0.96
		C732.71,276.52,732.66,276.3,732.56,276.13z M731.25,271.61c0.34-0.35,0.51-0.77,0.51-1.28s-0.17-0.93-0.51-1.28
		c-0.34-0.35-0.77-0.52-1.29-0.52c-0.52,0-0.95,0.17-1.29,0.52c-0.34,0.35-0.51,0.77-0.51,1.28s0.17,0.93,0.51,1.28
		c0.34,0.35,0.77,0.52,1.29,0.52C730.47,272.13,730.9,271.96,731.25,271.61z"/>
	<path d="M742.88,275.24c-0.79,0.59-1.66,0.88-2.61,0.88c-0.91,0-1.56-0.28-1.93-0.83c-0.38-0.55-0.57-1.45-0.57-2.7
		c0-0.2,0.01-0.56,0.04-1.06l0.16-2.7h-1.82v-1.06h1.89l0.12-2.2l1.44-0.23l0.18-0.02l0.02,0.11c-0.08,0.12-0.15,0.22-0.19,0.31
		c-0.04,0.08-0.07,0.22-0.08,0.4l-0.2,1.64h2.74v1.06h-2.81l-0.16,2.79c-0.02,0.48-0.04,0.8-0.04,0.95c0,0.96,0.11,1.61,0.33,1.95
		c0.22,0.34,0.58,0.51,1.07,0.51c0.36,0,0.69-0.07,0.99-0.2c0.3-0.13,0.64-0.34,1.03-0.63L742.88,275.24z"/>
	<path d="M745.21,264.03h1.42v0.13c-0.07,0.07-0.12,0.15-0.14,0.23c-0.02,0.08-0.03,0.23-0.03,0.43v4.41
		c0.32-0.5,0.73-0.91,1.21-1.21c0.49-0.3,0.98-0.45,1.48-0.45c0.78,0,1.39,0.28,1.84,0.83c0.44,0.55,0.67,1.42,0.67,2.61V276h-1.26
		v-4.95c0-0.82-0.14-1.41-0.41-1.78c-0.28-0.37-0.64-0.56-1.1-0.56c-0.38,0-0.76,0.11-1.13,0.32c-0.37,0.21-0.68,0.51-0.93,0.9
		c-0.25,0.39-0.37,0.84-0.37,1.34V276h-1.26V264.03z"/>
	<path d="M756.44,270.15c-0.21-0.2-0.32-0.44-0.32-0.72c0-0.29,0.11-0.53,0.32-0.74c0.21-0.2,0.46-0.3,0.75-0.3
		c0.29,0,0.54,0.1,0.76,0.3c0.22,0.21,0.32,0.45,0.32,0.74c0,0.28-0.11,0.52-0.32,0.72c-0.21,0.2-0.47,0.31-0.76,0.31
		C756.9,270.46,756.65,270.35,756.44,270.15z M756.42,275.9c-0.2-0.2-0.31-0.44-0.31-0.73s0.11-0.53,0.32-0.74
		c0.21-0.2,0.46-0.31,0.75-0.31c0.29,0,0.54,0.1,0.76,0.31c0.22,0.21,0.32,0.45,0.32,0.74c0,0.28-0.11,0.52-0.31,0.72
		c-0.21,0.2-0.46,0.31-0.77,0.31C756.88,276.2,756.62,276.1,756.42,275.9z"/>
	<path d="M778,271.1c0.38,0.48,0.58,1.09,0.58,1.82c0,0.6-0.13,1.15-0.4,1.65c-0.26,0.5-0.65,0.89-1.15,1.19s-1.11,0.44-1.82,0.44
		c-0.6,0-1.17-0.11-1.7-0.32c-0.54-0.22-0.99-0.53-1.38-0.95l0.83-0.99l0.02-0.02l0.02,0.02c0.3,0.38,0.61,0.68,0.93,0.88
		c0.32,0.2,0.73,0.31,1.23,0.31c0.7,0,1.22-0.2,1.58-0.61s0.54-0.95,0.54-1.64c0-0.74-0.22-1.3-0.67-1.67
		c-0.45-0.37-1.08-0.56-1.9-0.56c-0.12,0-0.31,0.01-0.58,0.04v-1.01c1.07,0,1.8-0.2,2.19-0.59c0.39-0.4,0.59-0.94,0.59-1.62
		c0-0.5-0.15-0.91-0.44-1.21s-0.68-0.45-1.16-0.45c-0.78,0-1.46,0.28-2.05,0.83l-0.76-0.76c0.73-0.77,1.66-1.15,2.79-1.15
		c0.9,0,1.61,0.25,2.13,0.76c0.52,0.51,0.78,1.19,0.78,2.03c0,0.61-0.15,1.15-0.45,1.6c-0.3,0.46-0.74,0.77-1.31,0.96
		C777.09,270.28,777.62,270.62,778,271.1z M772.95,273.82c0.03,0.02,0.05,0.04,0.06,0.05l-0.04,0.04
		C772.93,273.83,772.92,273.8,772.95,273.82z M773.12,273.92c-0.04-0.01-0.07-0.02-0.11-0.04l0.07-0.09l0.09,0.09
		C773.18,273.91,773.16,273.93,773.12,273.92z"/>
</g>
<line class="st1" x1="258.88" y1="238.5" x2="258.88" y2="259.5"/>
<line class="st2" x1="258.88" y1="259.5" x2="269.28" y2="259.5"/>
<line class="st1" x1="269.28" y1="238.5" x2="269.28" y2="259.5"/>
<g>
	<path d="M174.48,273.67c0.43,0.37,0.64,0.84,0.64,1.43c0,0.74-0.29,1.36-0.87,1.85s-1.42,0.73-2.53,0.73
		c-1.39,0-2.56-0.43-3.49-1.3l0.72-1.22l0.02-0.02l0.02,0.02c0.37,0.48,0.76,0.84,1.15,1.08s0.94,0.36,1.62,0.36
		c0.65,0,1.16-0.12,1.53-0.35s0.56-0.55,0.56-0.96c0-0.35-0.15-0.64-0.45-0.86c-0.3-0.23-0.84-0.47-1.62-0.72
		c-2.06-0.59-3.1-1.44-3.1-2.56c0-0.64,0.26-1.14,0.78-1.51s1.27-0.56,2.24-0.56c0.74,0,1.37,0.11,1.88,0.31
		c0.51,0.21,0.98,0.54,1.4,0.98l-0.74,0.9l-0.02,0.02c-0.25-0.38-0.61-0.69-1.07-0.91c-0.46-0.22-0.93-0.33-1.41-0.33
		c-0.52,0-0.94,0.09-1.27,0.27c-0.33,0.18-0.5,0.43-0.5,0.76c0,0.3,0.17,0.58,0.5,0.83s0.94,0.5,1.82,0.76
		C173.33,272.97,174.06,273.31,174.48,273.67z M168.93,275.05c0.01,0,0.04,0.01,0.07,0.04l-0.04,0.05
		C168.93,275.08,168.92,275.05,168.93,275.05z M169.16,275.09c0,0.05-0.05,0.05-0.16,0l0.05-0.09l0.11,0.07V275.09z M174.17,271.34
		l-0.05,0.07l-0.09-0.09C174.02,271.27,174.07,271.27,174.17,271.34z M174.27,271.38c-0.01,0.01-0.02,0.01-0.04,0
		c-0.02-0.01-0.04-0.02-0.05-0.04l0.05-0.05C174.26,271.34,174.27,271.37,174.27,271.38z"/>
	<path d="M184.19,276.74c-0.79,0.59-1.66,0.88-2.61,0.88c-0.91,0-1.56-0.28-1.94-0.83c-0.38-0.55-0.57-1.45-0.57-2.7
		c0-0.2,0.01-0.56,0.04-1.06l0.16-2.7h-1.82v-1.06h1.89l0.13-2.2l1.44-0.23l0.18-0.02l0.02,0.11c-0.08,0.12-0.15,0.22-0.19,0.31
		c-0.04,0.08-0.07,0.22-0.08,0.4l-0.2,1.64h2.74v1.06h-2.81l-0.16,2.79c-0.02,0.48-0.04,0.8-0.04,0.95c0,0.96,0.11,1.61,0.33,1.95
		s0.58,0.51,1.07,0.51c0.36,0,0.69-0.07,0.99-0.2c0.3-0.13,0.64-0.34,1.03-0.63L184.19,276.74z"/>
	<path d="M192.29,270.01c0.62,0.61,0.93,1.65,0.93,3.11v4.37h-1.4v-1.26c-0.5,0.97-1.44,1.46-2.81,1.46c-0.91,0-1.63-0.21-2.14-0.62
		c-0.52-0.41-0.77-0.96-0.77-1.65c0-0.58,0.19-1.08,0.56-1.51s0.87-0.77,1.5-1c0.63-0.23,1.32-0.35,2.08-0.35
		c0.68,0,1.3,0.04,1.85,0.11c-0.07-0.92-0.31-1.57-0.73-1.95c-0.41-0.38-1.03-0.57-1.85-0.57c-0.41,0-0.8,0.08-1.18,0.23
		c-0.38,0.16-0.72,0.38-1.04,0.68l-0.63-0.83c0.77-0.77,1.75-1.15,2.93-1.15C190.77,269.09,191.67,269.4,192.29,270.01z
		 M191.23,275.92c0.52-0.52,0.8-1.27,0.85-2.26c-0.54-0.08-1.12-0.13-1.75-0.13c-0.91,0-1.63,0.15-2.16,0.45
		c-0.53,0.3-0.79,0.76-0.79,1.37c0,0.9,0.58,1.35,1.75,1.35C190.01,276.71,190.72,276.45,191.23,275.92z"/>
	<path d="M201.87,270.98V271c-0.35-0.32-0.64-0.54-0.87-0.65c-0.23-0.11-0.51-0.16-0.82-0.16c-0.43,0-0.84,0.11-1.22,0.32
		c-0.38,0.22-0.7,0.54-0.94,0.98c-0.24,0.44-0.36,0.99-0.36,1.65v4.37h-1.31v-8.24h1.35l-0.04,1.51c0.23-0.54,0.58-0.96,1.05-1.26
		c0.47-0.3,0.99-0.45,1.56-0.45c0.88,0,1.6,0.3,2.18,0.9L201.87,270.98z M201.67,271.06c0-0.04,0.02-0.05,0.05-0.04
		c0.04,0.01,0.07,0.02,0.11,0.04l-0.04,0.09l-0.13-0.07V271.06z M201.93,271.09c-0.04-0.01-0.08-0.02-0.1-0.04l0.04-0.05
		C201.95,271.07,201.98,271.1,201.93,271.09z"/>
	<path d="M211.19,276.74c-0.79,0.59-1.66,0.88-2.61,0.88c-0.91,0-1.56-0.28-1.94-0.83c-0.38-0.55-0.57-1.45-0.57-2.7
		c0-0.2,0.01-0.56,0.04-1.06l0.16-2.7h-1.82v-1.06h1.89l0.13-2.2l1.44-0.23l0.18-0.02l0.02,0.11c-0.08,0.12-0.15,0.22-0.19,0.31
		c-0.04,0.08-0.07,0.22-0.08,0.4l-0.2,1.64h2.74v1.06h-2.81l-0.16,2.79c-0.02,0.48-0.04,0.8-0.04,0.95c0,0.96,0.11,1.61,0.33,1.95
		s0.58,0.51,1.07,0.51c0.36,0,0.69-0.07,0.99-0.2c0.3-0.13,0.64-0.34,1.03-0.63L211.19,276.74z"/>
	<path d="M215.75,271.65c-0.22-0.2-0.32-0.44-0.32-0.72c0-0.29,0.1-0.53,0.31-0.74c0.21-0.2,0.46-0.3,0.75-0.3
		c0.29,0,0.54,0.1,0.76,0.3c0.22,0.21,0.32,0.45,0.32,0.74c0,0.28-0.11,0.52-0.32,0.72c-0.22,0.2-0.47,0.31-0.76,0.31
		C216.21,271.96,215.96,271.85,215.75,271.65z M215.73,277.4c-0.2-0.2-0.31-0.44-0.31-0.73s0.1-0.53,0.31-0.74
		c0.21-0.2,0.46-0.31,0.75-0.31c0.29,0,0.54,0.1,0.76,0.31c0.22,0.21,0.32,0.45,0.32,0.74c0,0.28-0.1,0.52-0.31,0.72
		c-0.21,0.2-0.46,0.31-0.76,0.31C216.19,277.7,215.93,277.6,215.73,277.4z"/>
	<path d="M231.48,272.44v-1.21h6.48v1.21H231.48z"/>
	<path d="M243.34,277.5v-9.67l-2.27,0.67l-0.29-0.7l2.93-1.53h0.88v11.23H243.34z"/>
	<path d="M252.34,277.5v-9.67l-2.27,0.67l-0.29-0.7l2.93-1.53h0.88v11.23H252.34z"/>
	<path d="M260.17,279.98c0.34-0.31,0.62-0.65,0.84-1.01c0.22-0.36,0.33-0.65,0.33-0.88c0-0.11-0.03-0.2-0.09-0.27
		c-0.06-0.07-0.17-0.18-0.32-0.32c-0.17-0.16-0.29-0.29-0.38-0.4c-0.08-0.11-0.13-0.24-0.13-0.4c0-0.3,0.1-0.55,0.3-0.76
		c0.2-0.2,0.45-0.31,0.77-0.31c0.32,0,0.61,0.14,0.85,0.42c0.25,0.28,0.37,0.64,0.37,1.07c0,0.94-0.64,2.06-1.93,3.38L260.17,279.98
		z"/>
	<path class="st3" d="M276.62,277.5v-1.04h2.43v-9.88h-2.32v-1.04h3.64v10.93h2.41v1.04H276.62z"/>
	<path class="st3" d="M286.17,276.56c-0.73-0.74-1.09-1.79-1.09-3.15c0-0.9,0.17-1.68,0.5-2.33c0.34-0.65,0.79-1.15,1.36-1.49
		c0.57-0.34,1.21-0.51,1.92-0.51c1,0,1.8,0.33,2.42,0.99s0.93,1.63,0.93,2.92c0,0.13-0.01,0.33-0.04,0.59h-5.85
		c0.05,1.01,0.33,1.77,0.85,2.29c0.52,0.52,1.17,0.78,1.96,0.78c0.86,0,1.57-0.31,2.12-0.92l0.72,0.7c-0.7,0.84-1.66,1.26-2.88,1.26
		C287.87,277.68,286.9,277.31,286.17,276.56z M290.9,272.57c0-0.77-0.2-1.38-0.58-1.83c-0.39-0.45-0.9-0.67-1.54-0.67
		c-0.6,0-1.12,0.21-1.57,0.63c-0.44,0.42-0.72,1.04-0.83,1.87H290.9z"/>
	<path class="st3" d="M294.5,269.27h1.26v1.46c0.32-0.5,0.73-0.91,1.22-1.21c0.49-0.3,1.01-0.45,1.57-0.45
		c0.73,0,1.32,0.28,1.75,0.84c0.44,0.56,0.66,1.42,0.66,2.6v4.99h-1.26v-4.95c0-0.82-0.14-1.41-0.41-1.78
		c-0.28-0.37-0.64-0.56-1.1-0.56c-0.37,0-0.75,0.11-1.12,0.32s-0.69,0.52-0.94,0.91c-0.25,0.39-0.37,0.83-0.37,1.32v4.73h-1.26
		V269.27z"/>
	<path class="st3" d="M310.28,270.1c-0.58,0-1.06,0.13-1.44,0.38c0.2,0.41,0.31,0.86,0.31,1.35c0,0.54-0.12,1.03-0.35,1.47
		c-0.23,0.44-0.57,0.78-1.01,1.04s-0.95,0.38-1.52,0.38c-0.46,0-0.88-0.08-1.28-0.25c-0.22,0.26-0.32,0.52-0.32,0.76
		c0,0.29,0.18,0.5,0.55,0.62s1.02,0.19,1.97,0.19c1.16,0,1.96,0.18,2.38,0.53c0.43,0.35,0.64,0.87,0.64,1.56
		c0,0.71-0.29,1.3-0.86,1.77c-0.58,0.47-1.48,0.71-2.7,0.71c-1.18,0-2.1-0.18-2.76-0.54c-0.67-0.36-1-0.89-1-1.58
		c0-0.43,0.12-0.8,0.36-1.12c0.24-0.31,0.55-0.56,0.92-0.74c-0.4-0.26-0.59-0.63-0.59-1.1c0-0.48,0.25-0.98,0.74-1.51
		c-0.3-0.26-0.53-0.58-0.68-0.95c-0.16-0.37-0.23-0.78-0.23-1.22c0-0.53,0.12-1.01,0.35-1.45c0.23-0.44,0.57-0.78,1.01-1.04
		s0.95-0.38,1.52-0.38c0.88,0,1.58,0.28,2.11,0.85c0.29-0.26,0.58-0.46,0.89-0.59c0.31-0.12,0.64-0.19,1.02-0.19l0.31,0.02
		l0.16,1.06C310.64,270.11,310.49,270.1,310.28,270.1z M308.87,277.63c-0.1-0.16-0.3-0.28-0.6-0.36c-0.3-0.08-0.75-0.12-1.35-0.12
		c-0.86,0-1.55-0.08-2.07-0.23c-0.29,0.19-0.49,0.39-0.6,0.59c-0.11,0.2-0.17,0.47-0.17,0.81c0,0.41,0.23,0.73,0.68,0.95
		c0.46,0.23,1.09,0.34,1.91,0.34c0.79,0,1.38-0.12,1.77-0.35c0.39-0.23,0.58-0.56,0.58-0.96
		C309.02,278.02,308.97,277.8,308.87,277.63z M307.56,273.11c0.34-0.35,0.51-0.77,0.51-1.28s-0.17-0.93-0.51-1.28
		c-0.34-0.35-0.77-0.52-1.29-0.52c-0.52,0-0.95,0.17-1.29,0.52c-0.34,0.35-0.51,0.77-0.51,1.28s0.17,0.93,0.51,1.28
		c0.34,0.35,0.77,0.52,1.29,0.52C306.79,273.63,307.21,273.46,307.56,273.11z"/>
	<path class="st3" d="M319.19,276.74c-0.79,0.59-1.66,0.88-2.61,0.88c-0.91,0-1.56-0.28-1.93-0.83s-0.57-1.45-0.57-2.7
		c0-0.2,0.01-0.56,0.04-1.06l0.16-2.7h-1.82v-1.06h1.89l0.13-2.2l1.44-0.23l0.18-0.02l0.02,0.11c-0.08,0.12-0.15,0.22-0.19,0.31
		s-0.07,0.22-0.08,0.4l-0.2,1.64h2.74v1.06h-2.81l-0.16,2.79c-0.02,0.48-0.04,0.8-0.04,0.95c0,0.96,0.11,1.61,0.33,1.95
		s0.58,0.51,1.07,0.51c0.36,0,0.69-0.07,0.99-0.2c0.3-0.13,0.64-0.34,1.03-0.63L319.19,276.74z"/>
	<path class="st3" d="M321.52,265.53h1.42v0.13c-0.07,0.07-0.12,0.15-0.14,0.23c-0.02,0.08-0.03,0.23-0.03,0.43v4.41
		c0.32-0.5,0.73-0.91,1.21-1.21c0.49-0.3,0.98-0.45,1.49-0.45c0.78,0,1.39,0.28,1.84,0.83c0.44,0.55,0.67,1.42,0.67,2.61v4.99h-1.26
		v-4.95c0-0.82-0.14-1.41-0.41-1.78c-0.28-0.37-0.64-0.56-1.1-0.56c-0.38,0-0.76,0.11-1.13,0.32c-0.37,0.21-0.68,0.51-0.93,0.9
		c-0.25,0.39-0.37,0.84-0.37,1.34v4.73h-1.26V265.53z"/>
	<path class="st3" d="M332.75,271.65c-0.22-0.2-0.32-0.44-0.32-0.72c0-0.29,0.11-0.53,0.32-0.74c0.21-0.2,0.46-0.3,0.75-0.3
		s0.54,0.1,0.76,0.3c0.22,0.21,0.32,0.45,0.32,0.74c0,0.28-0.11,0.52-0.32,0.72c-0.22,0.2-0.47,0.31-0.76,0.31
		C333.21,271.96,332.96,271.85,332.75,271.65z M332.73,277.4c-0.2-0.2-0.31-0.44-0.31-0.73s0.11-0.53,0.32-0.74
		c0.21-0.2,0.46-0.31,0.75-0.31s0.54,0.1,0.76,0.31c0.22,0.21,0.32,0.45,0.32,0.74c0,0.28-0.11,0.52-0.32,0.72
		c-0.21,0.2-0.46,0.31-0.76,0.31S332.93,277.6,332.73,277.4z"/>
	<path class="st3" d="M348.52,276.49l1.46-1.48c0.97-0.97,1.7-1.73,2.19-2.29c0.49-0.55,0.87-1.1,1.16-1.65s0.43-1.11,0.43-1.7
		c0-0.73-0.17-1.26-0.52-1.58c-0.35-0.32-0.81-0.49-1.39-0.49c-0.52,0-0.99,0.11-1.43,0.34s-0.73,0.48-0.87,0.76
		c-0.07,0.13-0.14,0.27-0.22,0.4c-0.07,0.14-0.11,0.22-0.11,0.24c0,0.01,0.01,0.02,0.02,0.02c0.01,0,0.04-0.01,0.07-0.03
		c0.04-0.02,0.06,0,0.07,0.04l-0.05,0.11l-0.16-0.09l-0.92-0.72c0.36-0.7,0.85-1.23,1.48-1.61c0.62-0.38,1.33-0.57,2.11-0.57
		c0.96,0,1.74,0.29,2.33,0.86s0.89,1.36,0.89,2.34c0,0.65-0.16,1.28-0.47,1.89c-0.31,0.61-0.71,1.19-1.2,1.75
		c-0.49,0.55-1.16,1.25-2.02,2.11l-1.22,1.24h4.18c0.19,0,0.33-0.01,0.42-0.04s0.17-0.07,0.24-0.14h0.13v1.28h-6.59V276.49z"/>
</g>
<line class="st1" x1="980.37" y1="298" x2="980.37" y2="319"/>
<g>
	<path class="st3" d="M896.96,332.17c0.43,0.37,0.64,0.84,0.64,1.43c0,0.74-0.29,1.36-0.87,1.85s-1.43,0.73-2.53,0.73
		c-1.39,0-2.56-0.43-3.49-1.3l0.72-1.22l0.02-0.02l0.02,0.02c0.37,0.48,0.76,0.84,1.15,1.08s0.94,0.36,1.62,0.36
		c0.65,0,1.16-0.12,1.53-0.35c0.37-0.23,0.56-0.55,0.56-0.96c0-0.35-0.15-0.64-0.45-0.86c-0.3-0.23-0.84-0.47-1.62-0.72
		c-2.06-0.59-3.1-1.44-3.1-2.56c0-0.64,0.26-1.14,0.78-1.51c0.52-0.37,1.27-0.56,2.24-0.56c0.74,0,1.37,0.11,1.88,0.31
		c0.51,0.21,0.97,0.54,1.39,0.98l-0.74,0.9l-0.02,0.02c-0.25-0.38-0.61-0.69-1.07-0.91c-0.46-0.22-0.93-0.33-1.41-0.33
		c-0.52,0-0.94,0.09-1.27,0.27c-0.33,0.18-0.5,0.43-0.5,0.76c0,0.3,0.17,0.58,0.5,0.83s0.94,0.5,1.82,0.76
		C895.8,331.47,896.53,331.81,896.96,332.17z M891.4,333.55c0.01,0,0.04,0.01,0.07,0.04l-0.04,0.05
		C891.4,333.58,891.39,333.55,891.4,333.55z M891.64,333.59c0,0.05-0.05,0.05-0.16,0l0.05-0.09l0.11,0.07V333.59z M896.64,329.84
		l-0.05,0.07l-0.09-0.09C896.5,329.77,896.54,329.77,896.64,329.84z M896.74,329.88c-0.01,0.01-0.02,0.01-0.04,0
		c-0.02-0.01-0.04-0.02-0.05-0.04l0.05-0.05C896.73,329.84,896.75,329.87,896.74,329.88z"/>
	<path class="st3" d="M906.67,335.24c-0.79,0.59-1.66,0.88-2.61,0.88c-0.91,0-1.56-0.28-1.93-0.83s-0.57-1.45-0.57-2.7
		c0-0.2,0.01-0.56,0.04-1.06l0.16-2.7h-1.82v-1.06h1.89l0.13-2.2l1.44-0.23l0.18-0.02l0.02,0.11c-0.08,0.12-0.15,0.22-0.19,0.31
		c-0.04,0.08-0.07,0.22-0.08,0.4l-0.2,1.64h2.74v1.06h-2.81l-0.16,2.79c-0.02,0.48-0.04,0.8-0.04,0.95c0,0.96,0.11,1.61,0.33,1.95
		c0.22,0.34,0.58,0.51,1.07,0.51c0.36,0,0.69-0.07,0.99-0.2c0.3-0.13,0.64-0.34,1.03-0.63L906.67,335.24z"/>
	<path class="st3" d="M914.76,328.51c0.62,0.61,0.93,1.65,0.93,3.11V336h-1.4v-1.26c-0.5,0.97-1.44,1.46-2.81,1.46
		c-0.91,0-1.62-0.21-2.14-0.62c-0.52-0.41-0.77-0.96-0.77-1.65c0-0.58,0.19-1.08,0.56-1.51s0.87-0.77,1.5-1s1.32-0.35,2.08-0.35
		c0.68,0,1.3,0.04,1.85,0.11c-0.07-0.92-0.31-1.57-0.73-1.95c-0.41-0.38-1.03-0.57-1.85-0.57c-0.41,0-0.8,0.08-1.18,0.23
		c-0.38,0.16-0.72,0.38-1.04,0.68l-0.63-0.83c0.77-0.77,1.75-1.15,2.93-1.15C913.24,327.59,914.14,327.9,914.76,328.51z
		 M913.71,334.42c0.52-0.52,0.8-1.27,0.85-2.26c-0.54-0.08-1.12-0.13-1.75-0.13c-0.91,0-1.63,0.15-2.16,0.45s-0.79,0.76-0.79,1.37
		c0,0.9,0.58,1.35,1.75,1.35C912.49,335.21,913.19,334.95,913.71,334.42z"/>
	<path class="st3" d="M924.34,329.48v0.02c-0.35-0.32-0.64-0.54-0.87-0.65c-0.23-0.11-0.51-0.16-0.82-0.16
		c-0.43,0-0.84,0.11-1.22,0.32c-0.38,0.22-0.7,0.54-0.94,0.98c-0.24,0.44-0.36,0.99-0.36,1.65v4.37h-1.31v-8.24h1.35l-0.04,1.51
		c0.23-0.54,0.58-0.96,1.05-1.26c0.47-0.3,0.99-0.45,1.56-0.45c0.88,0,1.6,0.3,2.18,0.9L924.34,329.48z M924.15,329.56
		c0-0.04,0.02-0.05,0.05-0.04c0.04,0.01,0.07,0.02,0.11,0.04l-0.04,0.09l-0.13-0.07V329.56z M924.41,329.59
		c-0.04-0.01-0.08-0.02-0.1-0.04l0.04-0.05C924.43,329.57,924.45,329.6,924.41,329.59z"/>
	<path class="st3" d="M933.67,335.24c-0.79,0.59-1.66,0.88-2.61,0.88c-0.91,0-1.56-0.28-1.93-0.83s-0.57-1.45-0.57-2.7
		c0-0.2,0.01-0.56,0.04-1.06l0.16-2.7h-1.82v-1.06h1.89l0.13-2.2l1.44-0.23l0.18-0.02l0.02,0.11c-0.08,0.12-0.15,0.22-0.19,0.31
		c-0.04,0.08-0.07,0.22-0.08,0.4l-0.2,1.64h2.74v1.06h-2.81l-0.16,2.79c-0.02,0.48-0.04,0.8-0.04,0.95c0,0.96,0.11,1.61,0.33,1.95
		c0.22,0.34,0.58,0.51,1.07,0.51c0.36,0,0.69-0.07,0.99-0.2c0.3-0.13,0.64-0.34,1.03-0.63L933.67,335.24z"/>
	<path class="st3" d="M938.22,330.15c-0.21-0.2-0.32-0.44-0.32-0.72c0-0.29,0.1-0.53,0.32-0.74c0.21-0.2,0.46-0.3,0.75-0.3
		c0.29,0,0.54,0.1,0.76,0.3c0.22,0.21,0.32,0.45,0.32,0.74c0,0.28-0.11,0.52-0.32,0.72c-0.21,0.2-0.47,0.31-0.76,0.31
		C938.68,330.46,938.44,330.35,938.22,330.15z M938.2,335.9c-0.2-0.2-0.31-0.44-0.31-0.73s0.1-0.53,0.32-0.74
		c0.21-0.2,0.46-0.31,0.75-0.31c0.29,0,0.54,0.1,0.76,0.31c0.22,0.21,0.32,0.45,0.32,0.74c0,0.28-0.11,0.52-0.31,0.72
		c-0.21,0.2-0.46,0.31-0.77,0.31C938.66,336.2,938.41,336.1,938.2,335.9z"/>
	<path class="st3" d="M956.82,336v-9.67l-2.27,0.67l-0.29-0.7l2.93-1.53h0.88V336H956.82z"/>
	<path class="st3" d="M962.99,334.99l1.46-1.48c0.97-0.97,1.7-1.73,2.19-2.29c0.49-0.55,0.87-1.1,1.16-1.65
		c0.29-0.55,0.43-1.11,0.43-1.7c0-0.73-0.17-1.26-0.52-1.58c-0.35-0.32-0.81-0.49-1.39-0.49c-0.52,0-0.99,0.11-1.43,0.34
		c-0.44,0.23-0.73,0.48-0.87,0.76c-0.07,0.13-0.14,0.27-0.22,0.4c-0.07,0.14-0.11,0.22-0.11,0.24c0,0.01,0.01,0.02,0.02,0.02
		s0.04-0.01,0.07-0.03s0.06,0,0.07,0.04l-0.05,0.11l-0.16-0.09l-0.92-0.72c0.36-0.7,0.85-1.23,1.48-1.61
		c0.62-0.38,1.33-0.57,2.11-0.57c0.96,0,1.74,0.29,2.33,0.86s0.89,1.36,0.89,2.34c0,0.65-0.16,1.28-0.47,1.89
		c-0.31,0.61-0.71,1.19-1.2,1.75c-0.49,0.55-1.16,1.25-2.02,2.11l-1.22,1.24h4.18c0.19,0,0.33-0.01,0.42-0.04s0.17-0.07,0.24-0.14
		h0.13V336h-6.59V334.99z"/>
	<path class="st3" d="M973.64,338.48c0.34-0.31,0.62-0.65,0.84-1.01c0.22-0.36,0.33-0.65,0.33-0.88c0-0.11-0.03-0.2-0.09-0.27
		c-0.06-0.07-0.17-0.18-0.32-0.32c-0.17-0.16-0.29-0.29-0.38-0.4c-0.08-0.11-0.13-0.24-0.13-0.4c0-0.3,0.1-0.55,0.3-0.76
		c0.2-0.2,0.45-0.31,0.77-0.31c0.32,0,0.61,0.14,0.86,0.42c0.25,0.28,0.37,0.64,0.37,1.07c0,0.94-0.64,2.06-1.93,3.38L973.64,338.48
		z"/>
	<path class="st3" d="M990.1,336v-1.04h2.43v-9.88h-2.32v-1.04h3.64v10.93h2.41V336H990.1z"/>
	<path class="st3" d="M999.65,335.06c-0.73-0.74-1.09-1.79-1.09-3.15c0-0.9,0.17-1.68,0.5-2.33c0.34-0.65,0.79-1.15,1.36-1.49
		c0.57-0.34,1.21-0.51,1.92-0.51c1,0,1.8,0.33,2.42,0.99c0.62,0.66,0.93,1.63,0.93,2.92c0,0.13-0.01,0.33-0.04,0.59h-5.85
		c0.05,1.01,0.33,1.77,0.85,2.29c0.52,0.52,1.17,0.78,1.96,0.78c0.86,0,1.57-0.31,2.12-0.92l0.72,0.7c-0.7,0.84-1.66,1.26-2.88,1.26
		C1001.35,336.18,1000.37,335.81,999.65,335.06z M1004.37,331.07c0-0.77-0.2-1.38-0.58-1.83c-0.39-0.45-0.9-0.67-1.54-0.67
		c-0.6,0-1.12,0.21-1.57,0.63c-0.45,0.42-0.72,1.04-0.83,1.87H1004.37z"/>
	<path class="st3" d="M1007.97,327.77h1.26v1.46c0.32-0.5,0.73-0.91,1.22-1.21c0.49-0.3,1.01-0.45,1.57-0.45
		c0.73,0,1.32,0.28,1.75,0.84c0.44,0.56,0.66,1.42,0.66,2.6V336h-1.26v-4.95c0-0.82-0.14-1.41-0.41-1.78
		c-0.28-0.37-0.64-0.56-1.1-0.56c-0.37,0-0.75,0.11-1.12,0.32c-0.38,0.22-0.69,0.52-0.94,0.91c-0.25,0.39-0.37,0.83-0.37,1.32V336
		h-1.26V327.77z"/>
	<path class="st3" d="M1023.76,328.6c-0.58,0-1.06,0.13-1.44,0.38c0.21,0.41,0.31,0.86,0.31,1.35c0,0.54-0.12,1.03-0.35,1.47
		c-0.23,0.44-0.57,0.78-1.01,1.04c-0.44,0.25-0.95,0.38-1.52,0.38c-0.46,0-0.88-0.08-1.28-0.25c-0.21,0.26-0.32,0.52-0.32,0.76
		c0,0.29,0.18,0.5,0.55,0.62c0.37,0.13,1.02,0.19,1.97,0.19c1.16,0,1.96,0.18,2.38,0.53c0.43,0.35,0.64,0.87,0.64,1.56
		c0,0.71-0.29,1.3-0.86,1.77c-0.58,0.47-1.48,0.71-2.7,0.71c-1.18,0-2.1-0.18-2.76-0.54c-0.67-0.36-1-0.89-1-1.58
		c0-0.43,0.12-0.8,0.36-1.12c0.24-0.31,0.55-0.56,0.92-0.74c-0.39-0.26-0.59-0.63-0.59-1.1c0-0.48,0.25-0.98,0.74-1.51
		c-0.3-0.26-0.53-0.58-0.68-0.95c-0.16-0.37-0.23-0.78-0.23-1.22c0-0.53,0.12-1.01,0.35-1.45c0.23-0.44,0.57-0.78,1.01-1.04
		c0.44-0.25,0.95-0.38,1.52-0.38c0.88,0,1.58,0.28,2.11,0.85c0.29-0.26,0.58-0.46,0.89-0.59c0.31-0.12,0.64-0.19,1.02-0.19l0.3,0.02
		l0.16,1.06C1024.12,328.61,1023.96,328.6,1023.76,328.6z M1022.34,336.13c-0.1-0.16-0.3-0.28-0.6-0.36
		c-0.3-0.08-0.75-0.12-1.35-0.12c-0.86,0-1.55-0.08-2.07-0.23c-0.29,0.19-0.49,0.39-0.6,0.59c-0.12,0.2-0.17,0.47-0.17,0.81
		c0,0.41,0.23,0.73,0.68,0.95c0.46,0.23,1.09,0.34,1.91,0.34c0.79,0,1.38-0.12,1.77-0.35c0.39-0.23,0.59-0.56,0.59-0.96
		C1022.5,336.52,1022.45,336.3,1022.34,336.13z M1021.03,331.61c0.34-0.35,0.51-0.77,0.51-1.28s-0.17-0.93-0.51-1.28
		c-0.34-0.35-0.77-0.52-1.29-0.52c-0.52,0-0.95,0.17-1.29,0.52c-0.34,0.35-0.51,0.77-0.51,1.28s0.17,0.93,0.51,1.28
		c0.34,0.35,0.77,0.52,1.29,0.52C1020.26,332.13,1020.69,331.96,1021.03,331.61z"/>
	<path class="st3" d="M1032.67,335.24c-0.79,0.59-1.66,0.88-2.61,0.88c-0.91,0-1.56-0.28-1.93-0.83c-0.38-0.55-0.57-1.45-0.57-2.7
		c0-0.2,0.01-0.56,0.04-1.06l0.16-2.7h-1.82v-1.06h1.89l0.12-2.2l1.44-0.23l0.18-0.02l0.02,0.11c-0.08,0.12-0.15,0.22-0.19,0.31
		c-0.04,0.08-0.07,0.22-0.08,0.4l-0.2,1.64h2.74v1.06h-2.81l-0.16,2.79c-0.02,0.48-0.04,0.8-0.04,0.95c0,0.96,0.11,1.61,0.33,1.95
		c0.22,0.34,0.58,0.51,1.07,0.51c0.36,0,0.69-0.07,0.99-0.2c0.3-0.13,0.64-0.34,1.03-0.63L1032.67,335.24z"/>
	<path class="st3" d="M1034.99,324.03h1.42v0.13c-0.07,0.07-0.12,0.15-0.14,0.23c-0.02,0.08-0.03,0.23-0.03,0.43v4.41
		c0.32-0.5,0.73-0.91,1.21-1.21c0.49-0.3,0.98-0.45,1.48-0.45c0.78,0,1.39,0.28,1.84,0.83c0.44,0.55,0.67,1.42,0.67,2.61V336h-1.26
		v-4.95c0-0.82-0.14-1.41-0.41-1.78c-0.28-0.37-0.64-0.56-1.1-0.56c-0.38,0-0.76,0.11-1.13,0.32c-0.37,0.21-0.68,0.51-0.93,0.9
		c-0.25,0.39-0.37,0.84-0.37,1.34V336h-1.26V324.03z"/>
	<path class="st3" d="M1046.22,330.15c-0.21-0.2-0.32-0.44-0.32-0.72c0-0.29,0.11-0.53,0.32-0.74c0.21-0.2,0.46-0.3,0.75-0.3
		c0.29,0,0.54,0.1,0.76,0.3c0.22,0.21,0.32,0.45,0.32,0.74c0,0.28-0.11,0.52-0.32,0.72c-0.21,0.2-0.47,0.31-0.76,0.31
		C1046.68,330.46,1046.44,330.35,1046.22,330.15z M1046.2,335.9c-0.2-0.2-0.31-0.44-0.31-0.73s0.11-0.53,0.32-0.74
		c0.21-0.2,0.46-0.31,0.75-0.31c0.29,0,0.54,0.1,0.76,0.31c0.22,0.21,0.32,0.45,0.32,0.74c0,0.28-0.11,0.52-0.31,0.72
		c-0.21,0.2-0.46,0.31-0.77,0.31C1046.66,336.2,1046.41,336.1,1046.2,335.9z"/>
	<path class="st3" d="M1061.99,334.99l1.46-1.48c0.97-0.97,1.7-1.73,2.19-2.29c0.49-0.55,0.87-1.1,1.16-1.65
		c0.29-0.55,0.43-1.11,0.43-1.7c0-0.73-0.17-1.26-0.52-1.58c-0.35-0.32-0.81-0.49-1.39-0.49c-0.52,0-0.99,0.11-1.43,0.34
		c-0.44,0.23-0.73,0.48-0.87,0.76c-0.07,0.13-0.14,0.27-0.22,0.4c-0.07,0.14-0.11,0.22-0.11,0.24c0,0.01,0.01,0.02,0.02,0.02
		s0.04-0.01,0.07-0.03s0.06,0,0.07,0.04l-0.05,0.11l-0.16-0.09l-0.92-0.72c0.36-0.7,0.85-1.23,1.48-1.61
		c0.62-0.38,1.33-0.57,2.11-0.57c0.96,0,1.74,0.29,2.33,0.86s0.89,1.36,0.89,2.34c0,0.65-0.16,1.28-0.47,1.89
		c-0.31,0.61-0.71,1.19-1.2,1.75c-0.48,0.55-1.16,1.25-2.02,2.11l-1.22,1.24h4.18c0.19,0,0.33-0.01,0.42-0.04s0.17-0.07,0.24-0.14
		h0.13V336h-6.59V334.99z"/>
</g>
<line class="st1" x1="98" y1="298" x2="98" y2="319"/>
<g>
	<path class="st3" d="M11.22,333.17c0.43,0.37,0.64,0.84,0.64,1.43c0,0.74-0.29,1.36-0.87,1.85s-1.42,0.73-2.53,0.73
		c-1.39,0-2.56-0.43-3.49-1.3l0.72-1.22l0.02-0.02l0.02,0.02c0.37,0.48,0.76,0.84,1.15,1.08s0.94,0.36,1.62,0.36
		c0.65,0,1.16-0.12,1.53-0.35s0.56-0.55,0.56-0.96c0-0.35-0.15-0.64-0.45-0.86c-0.3-0.23-0.84-0.47-1.62-0.72
		c-2.06-0.59-3.1-1.44-3.1-2.56c0-0.64,0.26-1.14,0.78-1.51s1.27-0.56,2.24-0.56c0.74,0,1.37,0.11,1.88,0.31
		c0.51,0.21,0.98,0.54,1.4,0.98l-0.74,0.9l-0.02,0.02c-0.25-0.38-0.61-0.69-1.07-0.91c-0.46-0.22-0.93-0.33-1.41-0.33
		c-0.52,0-0.94,0.09-1.27,0.27c-0.33,0.18-0.5,0.43-0.5,0.76c0,0.3,0.17,0.58,0.5,0.83s0.94,0.5,1.82,0.76
		C10.07,332.47,10.8,332.81,11.22,333.17z M5.67,334.55c0.01,0,0.04,0.01,0.07,0.04l-0.04,0.05C5.67,334.58,5.66,334.55,5.67,334.55
		z M5.9,334.59c0,0.05-0.05,0.05-0.16,0l0.05-0.09l0.11,0.07V334.59z M10.91,330.84l-0.05,0.07l-0.09-0.09
		C10.76,330.77,10.81,330.77,10.91,330.84z M11.01,330.88c-0.01,0.01-0.02,0.01-0.04,0c-0.02-0.01-0.04-0.02-0.05-0.04l0.05-0.05
		C11,330.84,11.01,330.87,11.01,330.88z"/>
	<path class="st3" d="M20.94,336.24c-0.79,0.59-1.66,0.88-2.61,0.88c-0.91,0-1.56-0.28-1.94-0.83c-0.38-0.55-0.57-1.45-0.57-2.7
		c0-0.2,0.01-0.56,0.04-1.06l0.16-2.7H14.2v-1.06h1.89l0.13-2.2l1.44-0.23l0.18-0.02l0.02,0.11c-0.08,0.12-0.15,0.22-0.19,0.31
		c-0.04,0.08-0.07,0.22-0.08,0.4l-0.2,1.64h2.74v1.06h-2.81l-0.16,2.79c-0.02,0.48-0.04,0.8-0.04,0.95c0,0.96,0.11,1.61,0.33,1.95
		s0.58,0.51,1.07,0.51c0.36,0,0.69-0.07,0.99-0.2c0.3-0.13,0.64-0.34,1.03-0.63L20.94,336.24z"/>
	<path class="st3" d="M29.03,329.51c0.62,0.61,0.93,1.65,0.93,3.11V337h-1.4v-1.26c-0.5,0.97-1.44,1.46-2.81,1.46
		c-0.91,0-1.63-0.21-2.14-0.62c-0.52-0.41-0.77-0.96-0.77-1.65c0-0.58,0.19-1.08,0.56-1.51s0.87-0.77,1.5-1
		c0.63-0.23,1.32-0.35,2.08-0.35c0.68,0,1.3,0.04,1.85,0.11c-0.07-0.92-0.31-1.57-0.73-1.95c-0.41-0.38-1.03-0.57-1.85-0.57
		c-0.41,0-0.8,0.08-1.18,0.23c-0.38,0.16-0.72,0.38-1.04,0.68l-0.63-0.83c0.77-0.77,1.75-1.15,2.93-1.15
		C27.51,328.59,28.41,328.9,29.03,329.51z M27.97,335.42c0.52-0.52,0.8-1.27,0.85-2.26c-0.54-0.08-1.12-0.13-1.75-0.13
		c-0.91,0-1.63,0.15-2.16,0.45c-0.53,0.3-0.79,0.76-0.79,1.37c0,0.9,0.58,1.35,1.75,1.35C26.75,336.21,27.46,335.95,27.97,335.42z"
		/>
	<path class="st3" d="M38.61,330.48v0.02c-0.35-0.32-0.64-0.54-0.87-0.65c-0.23-0.11-0.51-0.16-0.82-0.16
		c-0.43,0-0.84,0.11-1.22,0.32c-0.38,0.22-0.7,0.54-0.94,0.98c-0.24,0.44-0.36,0.99-0.36,1.65v4.37h-1.31v-8.24h1.35l-0.04,1.51
		c0.23-0.54,0.58-0.96,1.05-1.26c0.47-0.3,0.99-0.45,1.56-0.45c0.88,0,1.6,0.3,2.18,0.9L38.61,330.48z M38.41,330.56
		c0-0.04,0.02-0.05,0.05-0.04c0.04,0.01,0.07,0.02,0.11,0.04l-0.04,0.09l-0.13-0.07V330.56z M38.67,330.59
		c-0.04-0.01-0.08-0.02-0.1-0.04l0.04-0.05C38.69,330.57,38.72,330.6,38.67,330.59z"/>
	<path class="st3" d="M47.94,336.24c-0.79,0.59-1.66,0.88-2.61,0.88c-0.91,0-1.56-0.28-1.94-0.83c-0.38-0.55-0.57-1.45-0.57-2.7
		c0-0.2,0.01-0.56,0.04-1.06l0.16-2.7H41.2v-1.06h1.89l0.13-2.2l1.44-0.23l0.18-0.02l0.02,0.11c-0.08,0.12-0.15,0.22-0.19,0.31
		c-0.04,0.08-0.07,0.22-0.08,0.4l-0.2,1.64h2.74v1.06h-2.81l-0.16,2.79c-0.02,0.48-0.04,0.8-0.04,0.95c0,0.96,0.11,1.61,0.33,1.95
		s0.58,0.51,1.07,0.51c0.36,0,0.69-0.07,0.99-0.2c0.3-0.13,0.64-0.34,1.03-0.63L47.94,336.24z"/>
	<path class="st3" d="M52.49,331.15c-0.22-0.2-0.32-0.44-0.32-0.72c0-0.29,0.1-0.53,0.31-0.74c0.21-0.2,0.46-0.3,0.75-0.3
		c0.29,0,0.54,0.1,0.76,0.3c0.22,0.21,0.32,0.45,0.32,0.74c0,0.28-0.11,0.52-0.32,0.72c-0.22,0.2-0.47,0.31-0.76,0.31
		C52.95,331.46,52.71,331.35,52.49,331.15z M52.47,336.9c-0.2-0.2-0.31-0.44-0.31-0.73s0.1-0.53,0.31-0.74
		c0.21-0.2,0.46-0.31,0.75-0.31c0.29,0,0.54,0.1,0.76,0.31c0.22,0.21,0.32,0.45,0.32,0.74c0,0.28-0.1,0.52-0.31,0.72
		c-0.21,0.2-0.46,0.31-0.76,0.31C52.93,337.2,52.67,337.1,52.47,336.9z"/>
	<path class="st3" d="M68.22,331.94v-1.21h6.48v1.21H68.22z"/>
	<path class="st3" d="M80.08,337v-9.67L77.81,328l-0.29-0.7l2.93-1.53h0.88V337H80.08z"/>
	<path class="st3" d="M92.05,332.1c0.38,0.48,0.58,1.09,0.58,1.82c0,0.6-0.13,1.15-0.4,1.65c-0.26,0.5-0.65,0.89-1.15,1.19
		s-1.11,0.44-1.82,0.44c-0.6,0-1.17-0.11-1.7-0.32c-0.53-0.22-0.99-0.53-1.38-0.95l0.83-0.99l0.02-0.02l0.02,0.02
		c0.3,0.38,0.61,0.68,0.93,0.88c0.32,0.2,0.73,0.31,1.23,0.31c0.7,0,1.22-0.2,1.58-0.61c0.36-0.41,0.54-0.95,0.54-1.64
		c0-0.74-0.22-1.3-0.67-1.67c-0.45-0.37-1.08-0.56-1.9-0.56c-0.12,0-0.31,0.01-0.58,0.04v-1.01c1.07,0,1.8-0.2,2.19-0.59
		c0.39-0.4,0.58-0.94,0.58-1.62c0-0.5-0.15-0.91-0.44-1.21c-0.29-0.3-0.68-0.45-1.16-0.45c-0.78,0-1.46,0.28-2.05,0.83l-0.76-0.76
		c0.73-0.77,1.66-1.15,2.79-1.15c0.9,0,1.61,0.25,2.13,0.76c0.52,0.51,0.78,1.19,0.78,2.03c0,0.61-0.15,1.15-0.45,1.6
		c-0.3,0.46-0.74,0.77-1.31,0.96C91.15,331.28,91.67,331.62,92.05,332.1z M87,334.82c0.03,0.02,0.05,0.04,0.06,0.05l-0.04,0.04
		C86.98,334.83,86.97,334.8,87,334.82z M87.18,334.92c-0.04-0.01-0.07-0.02-0.11-0.04l0.07-0.09l0.09,0.09
		C87.23,334.91,87.21,334.93,87.18,334.92z"/>
	<path class="st3" d="M96.91,339.48c0.34-0.31,0.62-0.65,0.84-1.01c0.22-0.36,0.33-0.65,0.33-0.88c0-0.11-0.03-0.2-0.09-0.27
		c-0.06-0.07-0.17-0.18-0.32-0.32c-0.17-0.16-0.29-0.29-0.38-0.4c-0.08-0.11-0.13-0.24-0.13-0.4c0-0.3,0.1-0.55,0.3-0.76
		c0.2-0.2,0.45-0.31,0.77-0.31c0.32,0,0.61,0.14,0.85,0.42c0.25,0.28,0.37,0.64,0.37,1.07c0,0.94-0.64,2.06-1.93,3.38L96.91,339.48z
		"/>
	<path class="st3" d="M113.36,337v-1.04h2.43v-9.88h-2.32v-1.04h3.64v10.93h2.41V337H113.36z"/>
	<path class="st3" d="M122.91,336.06c-0.73-0.74-1.09-1.79-1.09-3.15c0-0.9,0.17-1.68,0.5-2.33c0.34-0.65,0.79-1.15,1.36-1.49
		c0.57-0.34,1.21-0.51,1.92-0.51c1,0,1.8,0.33,2.42,0.99s0.93,1.63,0.93,2.92c0,0.13-0.01,0.33-0.04,0.59h-5.85
		c0.05,1.01,0.33,1.77,0.85,2.29c0.52,0.52,1.17,0.78,1.96,0.78c0.86,0,1.57-0.31,2.12-0.92l0.72,0.7c-0.7,0.84-1.66,1.26-2.88,1.26
		C124.61,337.18,123.64,336.81,122.91,336.06z M127.64,332.07c0-0.77-0.2-1.38-0.58-1.83c-0.39-0.45-0.9-0.67-1.54-0.67
		c-0.6,0-1.12,0.21-1.57,0.63c-0.44,0.42-0.72,1.04-0.83,1.87H127.64z"/>
	<path class="st3" d="M131.24,328.77h1.26v1.46c0.32-0.5,0.73-0.91,1.22-1.21c0.49-0.3,1.01-0.45,1.57-0.45
		c0.73,0,1.32,0.28,1.75,0.84c0.44,0.56,0.66,1.42,0.66,2.6V337h-1.26v-4.95c0-0.82-0.14-1.41-0.41-1.78
		c-0.28-0.37-0.64-0.56-1.1-0.56c-0.37,0-0.75,0.11-1.12,0.32s-0.69,0.52-0.94,0.91c-0.25,0.39-0.37,0.83-0.37,1.32V337h-1.26
		V328.77z"/>
	<path class="st3" d="M147.02,329.6c-0.58,0-1.06,0.13-1.44,0.38c0.2,0.41,0.31,0.86,0.31,1.35c0,0.54-0.12,1.03-0.35,1.47
		c-0.23,0.44-0.57,0.78-1.01,1.04s-0.95,0.38-1.52,0.38c-0.46,0-0.88-0.08-1.28-0.25c-0.22,0.26-0.32,0.52-0.32,0.76
		c0,0.29,0.18,0.5,0.55,0.62s1.02,0.19,1.97,0.19c1.16,0,1.96,0.18,2.38,0.53c0.43,0.35,0.64,0.87,0.64,1.56
		c0,0.71-0.29,1.3-0.86,1.77c-0.58,0.47-1.48,0.71-2.7,0.71c-1.18,0-2.1-0.18-2.76-0.54c-0.67-0.36-1-0.89-1-1.58
		c0-0.43,0.12-0.8,0.36-1.12c0.24-0.31,0.55-0.56,0.92-0.74c-0.4-0.26-0.59-0.63-0.59-1.1c0-0.48,0.25-0.98,0.74-1.51
		c-0.3-0.26-0.53-0.58-0.68-0.95c-0.16-0.37-0.23-0.78-0.23-1.22c0-0.53,0.12-1.01,0.35-1.45c0.23-0.44,0.57-0.78,1.01-1.04
		s0.95-0.38,1.52-0.38c0.88,0,1.58,0.28,2.11,0.85c0.29-0.26,0.58-0.46,0.89-0.59c0.31-0.12,0.64-0.19,1.02-0.19l0.31,0.02
		l0.16,1.06C147.39,329.61,147.23,329.6,147.02,329.6z M145.61,337.13c-0.1-0.16-0.3-0.28-0.6-0.36c-0.3-0.08-0.75-0.12-1.35-0.12
		c-0.86,0-1.55-0.08-2.07-0.23c-0.29,0.19-0.49,0.39-0.6,0.59c-0.11,0.2-0.17,0.47-0.17,0.81c0,0.41,0.23,0.73,0.68,0.95
		c0.46,0.23,1.09,0.34,1.91,0.34c0.79,0,1.38-0.12,1.77-0.35c0.39-0.23,0.58-0.56,0.58-0.96
		C145.77,337.52,145.71,337.3,145.61,337.13z M144.3,332.61c0.34-0.35,0.51-0.77,0.51-1.28s-0.17-0.93-0.51-1.28
		c-0.34-0.35-0.77-0.52-1.29-0.52c-0.52,0-0.95,0.17-1.29,0.52c-0.34,0.35-0.51,0.77-0.51,1.28s0.17,0.93,0.51,1.28
		c0.34,0.35,0.77,0.52,1.29,0.52C143.53,333.13,143.96,332.96,144.3,332.61z"/>
	<path class="st3" d="M155.94,336.24c-0.79,0.59-1.66,0.88-2.61,0.88c-0.91,0-1.56-0.28-1.93-0.83s-0.57-1.45-0.57-2.7
		c0-0.2,0.01-0.56,0.04-1.06l0.16-2.7h-1.82v-1.06h1.89l0.13-2.2l1.44-0.23l0.18-0.02l0.02,0.11c-0.08,0.12-0.15,0.22-0.19,0.31
		s-0.07,0.22-0.08,0.4l-0.2,1.64h2.74v1.06h-2.81l-0.16,2.79c-0.02,0.48-0.04,0.8-0.04,0.95c0,0.96,0.11,1.61,0.33,1.95
		s0.58,0.51,1.07,0.51c0.36,0,0.69-0.07,0.99-0.2c0.3-0.13,0.64-0.34,1.03-0.63L155.94,336.24z"/>
	<path class="st3" d="M158.26,325.03h1.42v0.13c-0.07,0.07-0.12,0.15-0.14,0.23c-0.02,0.08-0.03,0.23-0.03,0.43v4.41
		c0.32-0.5,0.73-0.91,1.21-1.21c0.49-0.3,0.98-0.45,1.49-0.45c0.78,0,1.39,0.28,1.84,0.83c0.44,0.55,0.67,1.42,0.67,2.61V337h-1.26
		v-4.95c0-0.82-0.14-1.41-0.41-1.78c-0.28-0.37-0.64-0.56-1.1-0.56c-0.38,0-0.76,0.11-1.13,0.32c-0.37,0.21-0.68,0.51-0.93,0.9
		c-0.25,0.39-0.37,0.84-0.37,1.34V337h-1.26V325.03z"/>
	<path class="st3" d="M169.49,331.15c-0.22-0.2-0.32-0.44-0.32-0.72c0-0.29,0.11-0.53,0.32-0.74c0.21-0.2,0.46-0.3,0.75-0.3
		s0.54,0.1,0.76,0.3c0.22,0.21,0.32,0.45,0.32,0.74c0,0.28-0.11,0.52-0.32,0.72c-0.22,0.2-0.47,0.31-0.76,0.31
		C169.95,331.46,169.7,331.35,169.49,331.15z M169.47,336.9c-0.2-0.2-0.31-0.44-0.31-0.73s0.11-0.53,0.32-0.74
		c0.21-0.2,0.46-0.31,0.75-0.31s0.54,0.1,0.76,0.31c0.22,0.21,0.32,0.45,0.32,0.74c0,0.28-0.11,0.52-0.32,0.72
		c-0.21,0.2-0.46,0.31-0.76,0.31S169.67,337.1,169.47,336.9z"/>
	<path class="st3" d="M185.26,335.99l1.46-1.48c0.97-0.97,1.7-1.73,2.19-2.29c0.49-0.55,0.87-1.1,1.16-1.65s0.43-1.11,0.43-1.7
		c0-0.73-0.17-1.26-0.52-1.58c-0.35-0.32-0.81-0.49-1.39-0.49c-0.52,0-0.99,0.11-1.43,0.34s-0.73,0.48-0.87,0.76
		c-0.07,0.13-0.14,0.27-0.22,0.4c-0.07,0.14-0.11,0.22-0.11,0.24c0,0.01,0.01,0.02,0.02,0.02c0.01,0,0.04-0.01,0.07-0.03
		c0.04-0.02,0.06,0,0.07,0.04l-0.05,0.11l-0.16-0.09l-0.92-0.72c0.36-0.7,0.85-1.23,1.48-1.61c0.62-0.38,1.33-0.57,2.11-0.57
		c0.96,0,1.74,0.29,2.33,0.86s0.89,1.36,0.89,2.34c0,0.65-0.16,1.28-0.47,1.89c-0.31,0.61-0.71,1.19-1.2,1.75
		c-0.49,0.55-1.16,1.25-2.02,2.11l-1.22,1.24h4.18c0.19,0,0.33-0.01,0.42-0.04s0.17-0.07,0.24-0.14h0.13V337h-6.59V335.99z"/>
</g>
</svg>
